<?xml version="1.0" encoding="utf-8"?>
<!-- Generator: Adobe Illustrator 16.0.0, SVG Export Plug-In . SVG Version: 6.00 Build 0)  -->
<!DOCTYPE svg PUBLIC "-//W3C//DTD SVG 1.1//EN" "http://www.w3.org/Graphics/SVG/1.1/DTD/svg11.dtd">
<svg version="1.1" id="Layer_1" xmlns="http://www.w3.org/2000/svg" xmlns:xlink="http://www.w3.org/1999/xlink" x="0px" y="0px"
	 width="673.916px" height="396.23px" viewBox="0 0 673.916 396.23" enable-background="new 0 0 673.916 396.23"
	 xml:space="preserve">
<g>
	<path fill="#010101" d="M285.917,110.508l1.008,5.109l0.138,0.023l1.26-5.132l7.057-23.92h2.589l7.057,23.92l1.214,5.155
		l0.138-0.022l1.077-5.132l6.026-23.92h2.795l-8.569,33.359h-2.589l-7.492-25.592l-0.871-3.505h-0.137l-0.848,3.505l-7.561,25.592
		h-2.612l-8.569-33.359h2.818L285.917,110.508z"/>
	<path fill="#010101" d="M329.953,120.429c-3.101,0-5.678-1.146-7.732-3.437c-2.055-2.291-3.082-5.193-3.082-8.707v-1.26
		c0-3.543,1.02-6.484,3.059-8.821s4.51-3.505,7.412-3.505c3.039,0,5.43,0.962,7.171,2.887c1.742,1.925,2.612,4.491,2.612,7.698
		v2.337h-17.504v0.663c0,2.79,0.741,5.121,2.222,6.996c1.481,1.875,3.429,2.812,5.842,2.812c1.711,0,3.169-0.236,4.376-0.71
		c1.206-0.474,2.237-1.153,3.093-2.039l1.168,1.878c-0.932,0.982-2.112,1.761-3.54,2.34
		C333.622,120.14,331.923,120.429,329.953,120.429z M329.609,97.036c-2.032,0-3.735,0.773-5.109,2.319
		c-1.375,1.546-2.177,3.484-2.406,5.815l0.046,0.114h14.526v-0.686c0-2.147-0.634-3.945-1.902-5.392
		C333.496,97.76,331.778,97.036,329.609,97.036z"/>
	<path fill="#010101" d="M364.801,108.24c0,3.712-0.84,6.671-2.52,8.878c-1.681,2.208-3.995,3.311-6.942,3.311
		c-1.818,0-3.383-0.363-4.697-1.088c-1.314-0.726-2.375-1.768-3.185-3.127l-0.298,3.734h-2.36V84.206h2.75v14.846
		c0.825-1.39,1.878-2.463,3.162-3.219c1.283-0.756,2.81-1.134,4.582-1.134c2.979,0,5.308,1.188,6.988,3.563
		c1.68,2.375,2.52,5.541,2.52,9.497V108.24z M362.029,107.76c0-3.176-0.611-5.757-1.833-7.744c-1.222-1.986-3.032-2.98-5.43-2.98
		c-1.909,0-3.448,0.476-4.617,1.427s-2.035,2.171-2.6,3.659v11.252c0.61,1.442,1.523,2.589,2.738,3.44
		c1.214,0.852,2.723,1.277,4.525,1.277c2.398,0,4.2-0.89,5.407-2.669c1.207-1.78,1.81-4.173,1.81-7.18V107.76z"/>
	<path fill="#010101" d="M383.107,119.948V86.588h9.692c4.078,0,7.446,1.36,10.104,4.079c2.658,2.719,3.987,6.209,3.987,10.47v4.285
		c0,4.277-1.329,7.767-3.987,10.471c-2.658,2.704-6.025,4.055-10.104,4.055H383.107z M385.834,88.926v28.685h6.965
		c3.299,0,6.014-1.152,8.145-3.457c2.13-2.305,3.196-5.22,3.196-8.745v-4.35c0-3.48-1.069-6.372-3.208-8.676
		c-2.139-2.305-4.85-3.457-8.133-3.457H385.834z"/>
	<path fill="#010101" d="M422.446,120.429c-3.101,0-5.678-1.146-7.732-3.437c-2.055-2.291-3.082-5.193-3.082-8.707v-1.26
		c0-3.543,1.02-6.484,3.059-8.821s4.51-3.505,7.412-3.505c3.039,0,5.43,0.962,7.171,2.887c1.742,1.925,2.612,4.491,2.612,7.698
		v2.337h-17.504v0.663c0,2.79,0.741,5.121,2.222,6.996c1.481,1.875,3.429,2.812,5.842,2.812c1.711,0,3.169-0.236,4.376-0.71
		c1.206-0.474,2.237-1.153,3.093-2.039l1.168,1.878c-0.932,0.982-2.112,1.761-3.54,2.34
		C426.116,120.14,424.417,120.429,422.446,120.429z M422.103,97.036c-2.032,0-3.735,0.773-5.109,2.319
		c-1.375,1.546-2.177,3.484-2.406,5.815l0.046,0.114h14.526v-0.686c0-2.147-0.634-3.945-1.902-5.392
		C425.99,97.76,424.271,97.036,422.103,97.036z"/>
	<path fill="#010101" d="M452.163,113.635c0-1.158-0.478-2.171-1.432-3.04c-0.955-0.868-2.677-1.577-5.167-2.125
		c-2.963-0.642-5.151-1.489-6.564-2.543c-1.413-1.054-2.12-2.543-2.12-4.468c0-1.894,0.798-3.494,2.395-4.8
		c1.596-1.306,3.708-1.959,6.335-1.959c2.795,0,5.01,0.691,6.644,2.074s2.414,3.112,2.337,5.189l-0.046,0.137h-2.543
		c0-1.359-0.577-2.543-1.729-3.551c-1.154-1.008-2.708-1.512-4.663-1.512c-2.001,0-3.502,0.43-4.502,1.288
		c-1.001,0.859-1.501,1.866-1.501,3.021c0,1.14,0.432,2.083,1.294,2.827s2.585,1.398,5.167,1.96
		c2.948,0.659,5.155,1.559,6.622,2.701s2.2,2.693,2.2,4.654c0,2.069-0.836,3.743-2.509,5.022c-1.672,1.279-3.883,1.919-6.633,1.919
		c-3.009,0-5.373-0.718-7.091-2.153s-2.532-3.146-2.44-5.132l0.045-0.138h2.521c0.106,1.779,0.836,3.072,2.188,3.877
		c1.352,0.806,2.944,1.209,4.777,1.209c1.986,0,3.551-0.434,4.697-1.303C451.59,115.921,452.163,114.869,452.163,113.635z"/>
	<path fill="#010101" d="M464.283,88.055h-2.726v-3.849h2.726V88.055z M464.283,119.948h-2.726v-24.79h2.726V119.948z"/>
	<path fill="#010101" d="M470.79,107.759c0-3.956,0.844-7.122,2.532-9.497c1.688-2.375,4.036-3.563,7.045-3.563
		c1.756,0,3.276,0.386,4.56,1.157c1.283,0.771,2.344,1.86,3.185,3.265l0.321-3.963h2.314v24.469c0,3.192-0.882,5.712-2.646,7.561
		c-1.764,1.848-4.22,2.772-7.366,2.772c-1.191,0-2.459-0.145-3.803-0.435c-1.344-0.291-2.521-0.688-3.528-1.191l0.71-2.314
		c0.978,0.488,2.008,0.859,3.093,1.111c1.084,0.252,2.245,0.378,3.482,0.378c2.413,0,4.235-0.695,5.464-2.085
		c1.229-1.39,1.844-3.322,1.844-5.797v-3.116c-0.84,1.252-1.901,2.219-3.185,2.898c-1.283,0.68-2.78,1.02-4.491,1.02
		c-2.979,0-5.312-1.107-7-3.322c-1.688-2.215-2.532-5.17-2.532-8.867V107.759z M473.539,108.243c0,2.992,0.611,5.381,1.833,7.168
		c1.222,1.787,3.04,2.681,5.453,2.681c1.771,0,3.25-0.409,4.433-1.227c1.184-0.817,2.097-1.944,2.738-3.378v-11.501
		c-0.596-1.449-1.47-2.636-2.623-3.562c-1.154-0.925-2.654-1.388-4.502-1.388c-2.414,0-4.238,0.998-5.476,2.992
		c-1.237,1.995-1.856,4.572-1.856,7.732V108.243z"/>
	<path fill="#010101" d="M500.438,95.158l0.252,4.33c0.794-1.527,1.867-2.707,3.219-3.54c1.352-0.832,2.952-1.249,4.8-1.249
		c2.688,0,4.735,0.821,6.14,2.463c1.405,1.642,2.108,4.205,2.108,7.687v15.099h-2.75v-15.106c0-2.847-0.531-4.859-1.592-6.038
		c-1.062-1.179-2.57-1.768-4.525-1.768c-1.925,0-3.494,0.509-4.708,1.527c-1.214,1.018-2.089,2.369-2.623,4.052v17.333h-2.75v-24.79
		H500.438z"/>
	<path fill="#010101" d="M533.429,120.429c-3.101,0-5.678-1.146-7.732-3.437c-2.055-2.291-3.082-5.193-3.082-8.707v-1.26
		c0-3.543,1.02-6.484,3.059-8.821s4.51-3.505,7.412-3.505c3.039,0,5.43,0.962,7.171,2.887c1.742,1.925,2.612,4.491,2.612,7.698
		v2.337h-17.504v0.663c0,2.79,0.741,5.121,2.222,6.996c1.481,1.875,3.429,2.812,5.842,2.812c1.711,0,3.169-0.236,4.376-0.71
		c1.206-0.474,2.237-1.153,3.093-2.039l1.168,1.878c-0.932,0.982-2.112,1.761-3.54,2.34
		C537.099,120.14,535.4,120.429,533.429,120.429z M533.086,97.036c-2.032,0-3.735,0.773-5.109,2.319
		c-1.375,1.546-2.177,3.484-2.406,5.815l0.046,0.114h14.526v-0.686c0-2.147-0.634-3.945-1.902-5.392
		C536.973,97.76,535.254,97.036,533.086,97.036z"/>
	<path fill="#010101" d="M559.709,97.518l-2.039-0.138c-1.726,0-3.143,0.485-4.25,1.455c-1.107,0.97-1.898,2.302-2.371,3.998v17.115
		h-2.75v-24.79h2.406l0.344,4.124v0.275c0.718-1.527,1.68-2.719,2.887-3.574c1.207-0.855,2.642-1.283,4.307-1.283
		c0.352,0,0.691,0.027,1.02,0.08c0.329,0.054,0.6,0.111,0.813,0.172L559.709,97.518z"/>
	<path fill="#010101" d="M564.796,119.948h-3.139v-3.757h3.139V119.948z"/>
	<path fill="#010101" d="M303.902,172.03c-0.749,1.085-2.112,2.097-4.09,3.036c-1.978,0.939-4.472,1.409-7.48,1.409
		c-3.88,0-7.061-1.321-9.542-3.963c-2.482-2.643-3.723-6.064-3.723-10.265v-6.117c0-4.124,1.18-7.484,3.54-10.081
		s5.419-3.895,9.176-3.895c3.589,0,6.396,0.897,8.42,2.692s3.196,4.128,3.517,6.999l-0.046,0.138h-2.543
		c-0.397-2.23-1.336-4.036-2.818-5.418c-1.482-1.382-3.658-2.074-6.53-2.074c-2.994,0-5.404,1.084-7.229,3.251
		c-1.826,2.167-2.738,4.945-2.738,8.333v6.158c0,3.48,0.97,6.334,2.91,8.562c1.939,2.229,4.475,3.342,7.606,3.342
		c2.214,0,4.097-0.309,5.647-0.926s2.608-1.292,3.173-2.024V162.5h-8.867v-2.337h11.616V172.03z"/>
	<path fill="#010101" d="M322.85,153.564l-2.039-0.138c-1.726,0-3.143,0.485-4.25,1.455c-1.107,0.97-1.898,2.302-2.371,3.998v17.115
		h-2.75v-24.79h2.406l0.344,4.124v0.275c0.718-1.527,1.68-2.719,2.887-3.574c1.207-0.855,2.642-1.283,4.307-1.283
		c0.352,0,0.691,0.027,1.02,0.08c0.329,0.054,0.6,0.111,0.813,0.172L322.85,153.564z"/>
	<path fill="#010101" d="M343.104,175.994c-0.184-0.84-0.313-1.565-0.39-2.177c-0.077-0.61-0.114-1.229-0.114-1.855
		c-0.917,1.298-2.139,2.375-3.666,3.23c-1.527,0.855-3.246,1.283-5.155,1.283c-2.414,0-4.288-0.641-5.625-1.924
		c-1.337-1.283-2.005-3.001-2.005-5.155c0-2.291,0.989-4.124,2.967-5.499c1.978-1.375,4.647-2.062,8.007-2.062h5.476v-3.07
		c0-1.771-0.569-3.162-1.707-4.17c-1.138-1.008-2.73-1.512-4.777-1.512c-1.909,0-3.494,0.481-4.754,1.443
		c-1.26,0.962-1.89,2.139-1.89,3.528l-2.521-0.022l-0.046-0.138c-0.091-1.848,0.752-3.501,2.532-4.96
		c1.779-1.458,4.044-2.188,6.793-2.188c2.734,0,4.934,0.695,6.599,2.085c1.665,1.39,2.497,3.383,2.497,5.98V171
		c0,0.871,0.05,1.718,0.149,2.543s0.264,1.642,0.493,2.452H343.104z M334.1,174.047c1.971,0,3.712-0.462,5.224-1.386
		s2.604-2.104,3.276-3.54v-5.178h-5.522c-2.49,0-4.479,0.531-5.968,1.592s-2.234,2.379-2.234,3.952c0,1.344,0.462,2.44,1.386,3.288
		C331.186,173.623,332.465,174.047,334.1,174.047z"/>
	<path fill="#010101" d="M372.591,164.286c0,3.712-0.84,6.671-2.521,8.878c-1.68,2.208-3.995,3.311-6.942,3.311
		c-1.741,0-3.265-0.329-4.571-0.985c-1.306-0.657-2.371-1.596-3.196-2.818v12.854h-2.75v-34.321h2.314l0.344,3.849
		c0.825-1.375,1.89-2.437,3.196-3.185c1.306-0.748,2.844-1.123,4.617-1.123c2.979,0,5.308,1.188,6.988,3.563
		s2.521,5.541,2.521,9.497V164.286z M369.842,163.771c0-3.15-0.626-5.719-1.879-7.707s-3.085-2.982-5.499-2.982
		c-1.849,0-3.349,0.44-4.502,1.319c-1.153,0.879-2.02,2.022-2.6,3.429v11.927c0.626,1.361,1.531,2.432,2.715,3.211
		c1.184,0.78,2.661,1.169,4.433,1.169c2.398,0,4.22-0.902,5.465-2.706c1.245-1.805,1.867-4.197,1.867-7.179V163.771z"/>
	<path fill="#010101" d="M381.504,155.442c0.825-1.481,1.924-2.635,3.299-3.459c1.375-0.825,2.979-1.237,4.812-1.237
		c2.612,0,4.617,0.81,6.014,2.429c1.398,1.619,2.097,4.132,2.097,7.538v15.282h-2.75v-15.358c0-2.694-0.531-4.626-1.592-5.797
		c-1.062-1.17-2.524-1.756-4.388-1.756c-1.878,0-3.448,0.494-4.708,1.481c-1.26,0.987-2.188,2.3-2.784,3.937v17.494h-2.75v-35.742
		h2.75V155.442z"/>
	<path fill="#010101" d="M407.943,144.102h-2.726v-3.849h2.726V144.102z M407.943,175.994h-2.726v-24.79h2.726V175.994z"/>
	<path fill="#010101" d="M424.715,174.138c1.817,0,3.421-0.517,4.812-1.552c1.39-1.035,2.085-2.472,2.085-4.313h2.428l0.046,0.138
		c0.076,2.291-0.84,4.208-2.75,5.75c-1.909,1.543-4.116,2.314-6.621,2.314c-3.376,0-5.984-1.157-7.824-3.471
		c-1.841-2.314-2.761-5.289-2.761-8.924v-0.962c0-3.604,0.924-6.567,2.772-8.89c1.848-2.321,4.445-3.482,7.79-3.482
		c2.719,0,4.983,0.802,6.793,2.406c1.81,1.604,2.685,3.712,2.624,6.324l-0.046,0.137h-2.451c0-1.985-0.668-3.57-2.005-4.754
		c-1.337-1.184-2.975-1.776-4.915-1.776c-2.658,0-4.625,0.95-5.9,2.85s-1.913,4.292-1.913,7.175v0.961
		c0,2.929,0.634,5.34,1.902,7.232C420.048,173.192,422.026,174.138,424.715,174.138z"/>
	<path fill="#010101" d="M452.002,175.994v-33.359h9.692c4.078,0,7.446,1.36,10.104,4.079c2.658,2.719,3.987,6.209,3.987,10.47
		v4.285c0,4.277-1.329,7.767-3.987,10.471c-2.658,2.704-6.025,4.055-10.104,4.055H452.002z M454.729,144.972v28.685h6.965
		c3.299,0,6.014-1.152,8.145-3.457c2.13-2.305,3.196-5.22,3.196-8.745v-4.35c0-3.48-1.069-6.372-3.208-8.676
		c-2.139-2.305-4.85-3.457-8.133-3.457H454.729z"/>
	<path fill="#010101" d="M491.341,176.475c-3.101,0-5.678-1.146-7.732-3.437c-2.055-2.291-3.082-5.193-3.082-8.707v-1.26
		c0-3.543,1.02-6.484,3.059-8.821s4.51-3.505,7.412-3.505c3.039,0,5.43,0.962,7.171,2.887c1.742,1.925,2.612,4.491,2.612,7.698
		v2.337h-17.504v0.663c0,2.79,0.741,5.121,2.222,6.996c1.481,1.875,3.429,2.812,5.842,2.812c1.711,0,3.169-0.236,4.376-0.71
		c1.206-0.474,2.237-1.153,3.093-2.039l1.168,1.878c-0.932,0.982-2.112,1.761-3.54,2.34
		C495.01,176.186,493.312,176.475,491.341,176.475z M490.998,153.083c-2.032,0-3.735,0.773-5.109,2.319
		c-1.375,1.546-2.177,3.484-2.406,5.815l0.046,0.114h14.526v-0.686c0-2.147-0.634-3.945-1.902-5.392
		C494.884,153.806,493.166,153.083,490.998,153.083z"/>
	<path fill="#010101" d="M521.058,169.681c0-1.158-0.478-2.171-1.432-3.04c-0.955-0.868-2.677-1.577-5.167-2.125
		c-2.963-0.642-5.151-1.489-6.564-2.543c-1.413-1.054-2.12-2.543-2.12-4.468c0-1.894,0.798-3.494,2.395-4.8
		c1.596-1.306,3.708-1.959,6.335-1.959c2.795,0,5.01,0.691,6.644,2.074s2.414,3.112,2.337,5.189l-0.046,0.137h-2.543
		c0-1.359-0.577-2.543-1.729-3.551c-1.154-1.008-2.708-1.512-4.663-1.512c-2.001,0-3.502,0.43-4.502,1.288
		c-1.001,0.859-1.501,1.866-1.501,3.021c0,1.14,0.432,2.083,1.294,2.827s2.585,1.398,5.167,1.96
		c2.948,0.659,5.155,1.559,6.622,2.701s2.2,2.693,2.2,4.654c0,2.069-0.836,3.743-2.509,5.022c-1.672,1.279-3.883,1.919-6.633,1.919
		c-3.009,0-5.373-0.718-7.091-2.153s-2.532-3.146-2.44-5.132l0.045-0.138h2.521c0.106,1.779,0.836,3.072,2.188,3.877
		c1.352,0.806,2.944,1.209,4.777,1.209c1.986,0,3.551-0.434,4.697-1.303C520.485,171.967,521.058,170.916,521.058,169.681z"/>
	<path fill="#010101" d="M533.177,144.102h-2.726v-3.849h2.726V144.102z M533.177,175.994h-2.726v-24.79h2.726V175.994z"/>
	<path fill="#010101" d="M539.684,163.805c0-3.956,0.844-7.122,2.532-9.497c1.688-2.375,4.036-3.563,7.045-3.563
		c1.756,0,3.276,0.386,4.56,1.157c1.283,0.771,2.344,1.86,3.185,3.265l0.321-3.963h2.314v24.469c0,3.192-0.882,5.712-2.646,7.561
		c-1.764,1.848-4.22,2.772-7.366,2.772c-1.191,0-2.459-0.145-3.803-0.435c-1.344-0.291-2.521-0.688-3.528-1.191l0.71-2.314
		c0.978,0.488,2.008,0.859,3.093,1.111c1.084,0.252,2.245,0.378,3.482,0.378c2.413,0,4.235-0.695,5.464-2.085
		c1.229-1.39,1.844-3.322,1.844-5.797v-3.116c-0.84,1.252-1.901,2.219-3.185,2.898c-1.283,0.68-2.78,1.02-4.491,1.02
		c-2.979,0-5.312-1.107-7-3.322c-1.688-2.215-2.532-5.17-2.532-8.867V163.805z M542.434,164.289c0,2.992,0.611,5.381,1.833,7.168
		c1.222,1.787,3.04,2.681,5.453,2.681c1.771,0,3.25-0.409,4.433-1.227c1.184-0.817,2.097-1.944,2.738-3.378v-11.501
		c-0.596-1.449-1.47-2.636-2.623-3.562c-1.154-0.925-2.654-1.388-4.502-1.388c-2.414,0-4.238,0.998-5.476,2.992
		c-1.237,1.995-1.856,4.572-1.856,7.732V164.289z"/>
	<path fill="#010101" d="M569.332,151.204l0.252,4.33c0.794-1.527,1.867-2.707,3.219-3.54c1.352-0.832,2.952-1.249,4.8-1.249
		c2.688,0,4.735,0.821,6.14,2.463c1.405,1.642,2.108,4.205,2.108,7.687v15.099h-2.75v-15.106c0-2.847-0.531-4.859-1.592-6.038
		c-1.062-1.179-2.57-1.768-4.525-1.768c-1.925,0-3.494,0.509-4.708,1.527c-1.214,1.018-2.089,2.369-2.623,4.052v17.333h-2.75v-24.79
		H569.332z"/>
	<path fill="#010101" d="M602.324,176.475c-3.101,0-5.678-1.146-7.732-3.437c-2.055-2.291-3.082-5.193-3.082-8.707v-1.26
		c0-3.543,1.02-6.484,3.059-8.821s4.51-3.505,7.412-3.505c3.039,0,5.43,0.962,7.171,2.887c1.742,1.925,2.612,4.491,2.612,7.698
		v2.337H594.26v0.663c0,2.79,0.741,5.121,2.222,6.996c1.481,1.875,3.429,2.812,5.842,2.812c1.711,0,3.169-0.236,4.376-0.71
		c1.206-0.474,2.237-1.153,3.093-2.039l1.168,1.878c-0.932,0.982-2.112,1.761-3.54,2.34
		C605.994,176.186,604.295,176.475,602.324,176.475z M601.981,153.083c-2.032,0-3.735,0.773-5.109,2.319
		c-1.375,1.546-2.177,3.484-2.406,5.815l0.046,0.114h14.526v-0.686c0-2.147-0.634-3.945-1.902-5.392
		C605.868,153.806,604.149,153.083,601.981,153.083z"/>
	<path fill="#010101" d="M628.604,153.564l-2.039-0.138c-1.726,0-3.143,0.485-4.25,1.455c-1.107,0.97-1.898,2.302-2.371,3.998
		v17.115h-2.75v-24.79h2.406l0.344,4.124v0.275c0.718-1.527,1.68-2.719,2.887-3.574c1.207-0.855,2.642-1.283,4.307-1.283
		c0.352,0,0.691,0.027,1.02,0.08c0.329,0.054,0.6,0.111,0.813,0.172L628.604,153.564z"/>
	<path fill="#010101" d="M633.69,175.994h-3.139v-3.757h3.139V175.994z"/>
	<path fill="#010101" d="M298.014,222.739h-15.282l-3.437,9.302h-2.841l12.67-33.359h2.589l12.579,33.359h-2.841L298.014,222.739z
		 M283.648,220.288h13.472l-6.645-18.054h-0.137L283.648,220.288z"/>
	<path fill="#010101" d="M320.055,209.611l-2.039-0.138c-1.726,0-3.143,0.485-4.25,1.455c-1.107,0.97-1.898,2.302-2.371,3.998
		v17.115h-2.75v-24.79h2.406l0.344,4.124v0.275c0.718-1.527,1.68-2.719,2.887-3.574c1.207-0.855,2.642-1.283,4.307-1.283
		c0.352,0,0.691,0.027,1.02,0.08c0.329,0.054,0.6,0.111,0.813,0.172L320.055,209.611z"/>
	<path fill="#010101" d="M329.655,200.904v6.347h5.453v2.245h-5.453v16.153c0,1.619,0.294,2.769,0.882,3.448
		c0.588,0.68,1.371,1.02,2.348,1.02c0.443,0,0.875-0.019,1.295-0.057c0.42-0.038,0.905-0.103,1.455-0.195l0.413,2.039
		c-0.458,0.199-1.016,0.352-1.673,0.458c-0.657,0.106-1.313,0.16-1.97,0.16c-1.741,0-3.097-0.55-4.067-1.649
		c-0.97-1.1-1.455-2.841-1.455-5.224v-16.153h-4.285v-2.245h4.285v-6.347H329.655z"/>
	<path fill="#010101" d="M343.997,200.148h-2.726v-3.849h2.726V200.148z M343.997,232.041h-2.726v-24.79h2.726V232.041z"/>
	<path fill="#010101" d="M366.428,225.728c0-1.158-0.478-2.171-1.432-3.04c-0.955-0.868-2.677-1.577-5.167-2.125
		c-2.963-0.642-5.151-1.489-6.564-2.543c-1.413-1.054-2.12-2.543-2.12-4.468c0-1.894,0.798-3.494,2.395-4.8
		c1.596-1.306,3.708-1.959,6.335-1.959c2.795,0,5.01,0.691,6.644,2.074s2.414,3.112,2.337,5.189l-0.046,0.137h-2.543
		c0-1.359-0.577-2.543-1.729-3.551c-1.154-1.008-2.708-1.512-4.663-1.512c-2.001,0-3.502,0.43-4.502,1.288
		c-1.001,0.859-1.501,1.866-1.501,3.021c0,1.14,0.432,2.083,1.294,2.827s2.585,1.398,5.167,1.96
		c2.948,0.659,5.155,1.559,6.622,2.701s2.2,2.693,2.2,4.654c0,2.069-0.836,3.743-2.509,5.022c-1.672,1.279-3.883,1.919-6.633,1.919
		c-3.009,0-5.373-0.718-7.091-2.153s-2.532-3.146-2.44-5.132l0.045-0.138h2.521c0.106,1.779,0.836,3.072,2.188,3.877
		c1.352,0.806,2.944,1.209,4.777,1.209c1.986,0,3.551-0.434,4.697-1.303C365.855,228.014,366.428,226.962,366.428,225.728z"/>
	<path fill="#010101" d="M379.785,200.904v6.347h5.453v2.245h-5.453v16.153c0,1.619,0.294,2.769,0.882,3.448
		c0.588,0.68,1.371,1.02,2.348,1.02c0.443,0,0.875-0.019,1.295-0.057c0.42-0.038,0.905-0.103,1.455-0.195l0.413,2.039
		c-0.458,0.199-1.016,0.352-1.673,0.458c-0.657,0.106-1.313,0.16-1.97,0.16c-1.741,0-3.097-0.55-4.067-1.649
		c-0.97-1.1-1.455-2.841-1.455-5.224v-16.153h-4.285v-2.245h4.285v-6.347H379.785z"/>
	<path fill="#010101" d="M394.403,232.041h-3.139v-3.757h3.139V232.041z"/>
	<path fill="#010101" d="M281.385,258.079l0.56,2.838l0.077,0.013l0.7-2.851l3.92-13.289h1.438l3.92,13.289l0.675,2.864l0.076-0.013
		l0.598-2.851l3.348-13.289h1.553l-4.761,18.533h-1.438l-4.162-14.218l-0.483-1.948h-0.077l-0.471,1.948l-4.201,14.218h-1.451
		l-4.76-18.533h1.565L281.385,258.079z"/>
	<path fill="#010101" d="M305.85,263.59c-1.723,0-3.154-0.636-4.296-1.909c-1.141-1.273-1.712-2.885-1.712-4.837v-0.7
		c0-1.969,0.566-3.603,1.699-4.901s2.505-1.947,4.118-1.947c1.689,0,3.017,0.535,3.984,1.604c0.967,1.069,1.451,2.495,1.451,4.277
		v1.298h-9.725v0.369c0,1.549,0.412,2.845,1.235,3.886s1.905,1.562,3.246,1.562c0.951,0,1.761-0.131,2.431-0.395
		c0.67-0.263,1.243-0.641,1.719-1.133l0.649,1.044c-0.518,0.545-1.173,0.979-1.966,1.3
		C307.888,263.429,306.944,263.59,305.85,263.59z M305.659,250.594c-1.128,0-2.075,0.43-2.838,1.288
		c-0.764,0.859-1.209,1.936-1.336,3.23l0.025,0.063h8.07v-0.381c0-1.193-0.352-2.191-1.056-2.996
		C307.818,250.996,306.864,250.594,305.659,250.594z"/>
	<path fill="#010101" d="M315.816,263.323h-1.515v-19.856h1.515V263.323z"/>
	<path fill="#010101" d="M325.134,262.292c1.01,0,1.901-0.287,2.673-0.862c0.772-0.575,1.159-1.374,1.159-2.396h1.349l0.025,0.076
		c0.042,1.273-0.467,2.338-1.527,3.195c-1.061,0.857-2.287,1.285-3.679,1.285c-1.875,0-3.324-0.643-4.347-1.928
		c-1.023-1.286-1.534-2.938-1.534-4.958v-0.535c0-2.003,0.513-3.649,1.54-4.939c1.026-1.29,2.469-1.935,4.328-1.935
		c1.51,0,2.769,0.445,3.774,1.336c1.006,0.891,1.491,2.062,1.458,3.513l-0.025,0.076h-1.362c0-1.103-0.372-1.983-1.114-2.641
		c-0.743-0.657-1.653-0.986-2.73-0.986c-1.477,0-2.569,0.528-3.278,1.583s-1.062,2.384-1.062,3.986v0.534
		c0,1.627,0.352,2.967,1.056,4.018C322.542,261.766,323.64,262.292,325.134,262.292z"/>
	<path fill="#010101" d="M332.682,256.233c0-2.028,0.556-3.691,1.667-4.99s2.584-1.947,4.417-1.947c1.841,0,3.318,0.649,4.43,1.947
		c1.111,1.298,1.667,2.962,1.667,4.99v0.42c0,2.037-0.554,3.702-1.661,4.996c-1.107,1.294-2.578,1.941-4.411,1.941
		c-1.85,0-3.331-0.647-4.442-1.941s-1.667-2.959-1.667-4.996V256.233z M334.209,256.646c0,1.594,0.403,2.933,1.209,4.018
		c0.806,1.085,1.93,1.627,3.373,1.627c1.417,0,2.531-0.542,3.341-1.627c0.81-1.084,1.215-2.424,1.215-4.018v-0.42
		c0-1.568-0.407-2.899-1.222-3.992c-0.815-1.093-1.935-1.64-3.36-1.64c-1.426,0-2.542,0.547-3.348,1.64s-1.209,2.424-1.209,3.992
		V256.646z"/>
	<path fill="#010101" d="M349.331,249.55l0.14,2.278c0.441-0.806,1.029-1.43,1.763-1.871c0.734-0.441,1.61-0.662,2.628-0.662
		c1.052,0,1.933,0.254,2.641,0.764s1.216,1.286,1.521,2.329c0.416-0.967,1.008-1.725,1.776-2.272
		c0.768-0.547,1.703-0.821,2.807-0.821c1.468,0,2.601,0.488,3.398,1.464c0.797,0.976,1.196,2.486,1.196,4.531v8.032h-1.527v-8.073
		c0-1.701-0.299-2.901-0.897-3.603c-0.598-0.702-1.432-1.052-2.501-1.052c-1.18,0-2.092,0.37-2.737,1.109s-1.043,1.688-1.196,2.844
		c0,0.06,0.002,0.145,0.006,0.255c0.004,0.11,0.006,0.191,0.006,0.242v8.277h-1.54v-8.073c0-1.667-0.304-2.859-0.91-3.578
		c-0.607-0.718-1.44-1.078-2.501-1.078c-1.078,0-1.933,0.274-2.564,0.823c-0.632,0.548-1.076,1.286-1.33,2.213v9.693h-1.541V249.55
		H349.331z"/>
	<path fill="#010101" d="M376.315,263.59c-1.723,0-3.154-0.636-4.296-1.909c-1.141-1.273-1.712-2.885-1.712-4.837v-0.7
		c0-1.969,0.566-3.603,1.699-4.901s2.505-1.947,4.118-1.947c1.689,0,3.017,0.535,3.984,1.604c0.967,1.069,1.451,2.495,1.451,4.277
		v1.298h-9.725v0.369c0,1.549,0.412,2.845,1.235,3.886s1.905,1.562,3.246,1.562c0.951,0,1.761-0.131,2.431-0.395
		c0.67-0.263,1.243-0.641,1.719-1.133l0.649,1.044c-0.518,0.545-1.173,0.979-1.966,1.3
		C378.354,263.429,377.41,263.59,376.315,263.59z M376.124,250.594c-1.128,0-2.075,0.43-2.838,1.288
		c-0.764,0.859-1.209,1.936-1.336,3.23l0.025,0.063h8.07v-0.381c0-1.193-0.352-2.191-1.056-2.996
		C378.284,250.996,377.329,250.594,376.124,250.594z"/>
	<path fill="#010101" d="M393.308,246.024v3.526h3.029v1.248h-3.029v8.974c0,0.899,0.163,1.538,0.49,1.916
		c0.327,0.378,0.762,0.566,1.305,0.566c0.246,0,0.486-0.01,0.719-0.032c0.233-0.021,0.503-0.057,0.808-0.108l0.229,1.133
		c-0.255,0.11-0.564,0.195-0.929,0.254c-0.365,0.059-0.73,0.089-1.095,0.089c-0.967,0-1.721-0.305-2.259-0.916
		c-0.539-0.611-0.809-1.579-0.809-2.902v-8.974h-2.38v-1.248h2.38v-3.526H393.308z"/>
	<path fill="#010101" d="M398.463,256.233c0-2.028,0.556-3.691,1.667-4.99s2.584-1.947,4.417-1.947c1.841,0,3.318,0.649,4.43,1.947
		c1.111,1.298,1.667,2.962,1.667,4.99v0.42c0,2.037-0.554,3.702-1.661,4.996c-1.107,1.294-2.578,1.941-4.411,1.941
		c-1.85,0-3.331-0.647-4.442-1.941s-1.667-2.959-1.667-4.996V256.233z M399.99,256.646c0,1.594,0.403,2.933,1.209,4.018
		c0.806,1.085,1.93,1.627,3.373,1.627c1.417,0,2.531-0.542,3.341-1.627c0.81-1.084,1.215-2.424,1.215-4.018v-0.42
		c0-1.568-0.407-2.899-1.222-3.992c-0.815-1.093-1.935-1.64-3.36-1.64c-1.426,0-2.542,0.547-3.348,1.64s-1.209,2.424-1.209,3.992
		V256.646z"/>
	<path fill="#010101" d="M422.559,246.024v3.526h3.029v1.248h-3.029v8.974c0,0.899,0.163,1.538,0.49,1.916
		c0.327,0.378,0.762,0.566,1.305,0.566c0.246,0,0.486-0.01,0.719-0.032c0.233-0.021,0.503-0.057,0.808-0.108l0.229,1.133
		c-0.255,0.11-0.564,0.195-0.929,0.254c-0.365,0.059-0.73,0.089-1.095,0.089c-0.967,0-1.721-0.305-2.259-0.916
		c-0.539-0.611-0.809-1.579-0.809-2.902v-8.974h-2.38v-1.248h2.38v-3.526H422.559z"/>
	<path fill="#010101" d="M430.348,251.905c0.458-0.823,1.069-1.464,1.833-1.922c0.764-0.458,1.655-0.688,2.673-0.688
		c1.451,0,2.565,0.45,3.341,1.349s1.165,2.295,1.165,4.188v8.49h-1.527v-8.533c0-1.496-0.295-2.57-0.885-3.22
		s-1.402-0.976-2.438-0.976c-1.043,0-1.916,0.274-2.616,0.823c-0.7,0.548-1.215,1.277-1.546,2.187v9.719h-1.527v-19.856h1.527
		V251.905z"/>
	<path fill="#010101" d="M448.499,263.59c-1.723,0-3.154-0.636-4.296-1.909c-1.141-1.273-1.712-2.885-1.712-4.837v-0.7
		c0-1.969,0.566-3.603,1.699-4.901s2.505-1.947,4.118-1.947c1.689,0,3.017,0.535,3.984,1.604c0.967,1.069,1.451,2.495,1.451,4.277
		v1.298h-9.725v0.369c0,1.549,0.412,2.845,1.235,3.886s1.905,1.562,3.246,1.562c0.951,0,1.761-0.131,2.431-0.395
		c0.67-0.263,1.243-0.641,1.719-1.133l0.649,1.044c-0.518,0.545-1.173,0.979-1.966,1.3
		C450.538,263.429,449.594,263.59,448.499,263.59z M448.308,250.594c-1.128,0-2.075,0.43-2.838,1.288
		c-0.764,0.859-1.209,1.936-1.336,3.23l0.025,0.063h8.07v-0.381c0-1.193-0.352-2.191-1.056-2.996
		C450.468,250.996,449.513,250.594,448.308,250.594z"/>
	<path fill="#010101" d="M466.065,258.855l0.521,2.457h0.077l0.649-2.457l2.928-9.305h1.311l2.928,9.305l0.662,2.521h0.077
		l0.573-2.521l2.507-9.305h1.579l-4.01,13.772h-1.298l-3.055-9.419l-0.598-2.38h-0.077l-0.611,2.38l-3.004,9.419h-1.311
		l-3.997-13.772h1.579L466.065,258.855z"/>
	<path fill="#010101" d="M481.976,256.233c0-2.028,0.556-3.691,1.667-4.99s2.584-1.947,4.417-1.947c1.841,0,3.318,0.649,4.43,1.947
		c1.111,1.298,1.667,2.962,1.667,4.99v0.42c0,2.037-0.554,3.702-1.661,4.996c-1.107,1.294-2.578,1.941-4.411,1.941
		c-1.85,0-3.331-0.647-4.442-1.941s-1.667-2.959-1.667-4.996V256.233z M483.503,256.646c0,1.594,0.403,2.933,1.209,4.018
		c0.806,1.085,1.93,1.627,3.373,1.627c1.417,0,2.531-0.542,3.341-1.627c0.81-1.084,1.215-2.424,1.215-4.018v-0.42
		c0-1.568-0.407-2.899-1.222-3.992c-0.815-1.093-1.935-1.64-3.36-1.64c-1.426,0-2.542,0.547-3.348,1.64s-1.209,2.424-1.209,3.992
		V256.646z"/>
	<path fill="#010101" d="M503.678,250.861l-1.133-0.076c-0.959,0-1.746,0.27-2.361,0.808c-0.615,0.539-1.055,1.279-1.317,2.221
		v9.508h-1.527V249.55h1.336l0.191,2.291v0.153c0.399-0.848,0.933-1.51,1.604-1.985c0.67-0.475,1.468-0.713,2.393-0.713
		c0.195,0,0.384,0.015,0.566,0.044s0.333,0.062,0.452,0.096L503.678,250.861z"/>
	<path fill="#010101" d="M507.917,263.323h-1.515v-19.856h1.515V263.323z"/>
	<path fill="#010101" d="M511.531,256.551c0-2.198,0.464-3.957,1.394-5.276c0.929-1.319,2.225-1.979,3.889-1.979
		c0.959,0,1.791,0.204,2.495,0.611c0.705,0.407,1.29,0.984,1.757,1.731v-8.171h1.515v19.856h-1.349l-0.127-1.999
		c-0.458,0.73-1.048,1.29-1.77,1.68s-1.57,0.585-2.545,0.585c-1.646,0-2.934-0.613-3.863-1.839
		c-0.929-1.227-1.394-2.871-1.394-4.933V256.551z M513.059,256.82c0,1.671,0.333,3,0.999,3.989c0.666,0.988,1.669,1.482,3.01,1.482
		c0.984,0,1.805-0.221,2.463-0.665c0.658-0.443,1.169-1.057,1.534-1.841v-6.495c-0.348-0.801-0.84-1.451-1.477-1.949
		c-0.637-0.499-1.468-0.748-2.495-0.748c-1.341,0-2.348,0.552-3.023,1.655c-0.674,1.104-1.012,2.538-1.012,4.302V256.82z"/>
	<path fill="#010101" d="M532.126,256.233c0-2.028,0.556-3.691,1.667-4.99s2.584-1.947,4.417-1.947c1.841,0,3.318,0.649,4.43,1.947
		c1.111,1.298,1.667,2.962,1.667,4.99v0.42c0,2.037-0.554,3.702-1.661,4.996c-1.107,1.294-2.578,1.941-4.411,1.941
		c-1.85,0-3.331-0.647-4.442-1.941s-1.667-2.959-1.667-4.996V256.233z M533.653,256.646c0,1.594,0.403,2.933,1.209,4.018
		c0.806,1.085,1.93,1.627,3.373,1.627c1.417,0,2.531-0.542,3.341-1.627c0.81-1.084,1.215-2.424,1.215-4.018v-0.42
		c0-1.568-0.407-2.899-1.222-3.992c-0.815-1.093-1.935-1.64-3.36-1.64c-1.426,0-2.542,0.547-3.348,1.64s-1.209,2.424-1.209,3.992
		V256.646z"/>
	<path fill="#010101" d="M548.597,263.323v-12.525h-2.278v-1.248h2.278v-2.011c0-1.383,0.346-2.452,1.037-3.208
		c0.692-0.755,1.661-1.133,2.909-1.133c0.28,0,0.564,0.021,0.853,0.064s0.582,0.102,0.878,0.178l-0.191,1.26
		c-0.204-0.051-0.414-0.091-0.63-0.121s-0.469-0.045-0.757-0.045c-0.832,0-1.468,0.263-1.91,0.79
		c-0.441,0.526-0.662,1.264-0.662,2.214v2.011h3.284v1.248h-3.284v12.525H548.597z"/>
	<path fill="#010101" d="M571.114,263.323c-0.102-0.467-0.174-0.87-0.216-1.209s-0.063-0.683-0.063-1.031
		c-0.509,0.721-1.188,1.32-2.037,1.795s-1.803,0.712-2.864,0.712c-1.341,0-2.383-0.356-3.125-1.069
		c-0.743-0.713-1.114-1.667-1.114-2.864c0-1.272,0.549-2.291,1.648-3.055c1.099-0.764,2.582-1.146,4.449-1.146h3.042v-1.706
		c0-0.984-0.316-1.757-0.948-2.317c-0.632-0.56-1.517-0.84-2.654-0.84c-1.061,0-1.941,0.267-2.641,0.802
		c-0.7,0.535-1.05,1.188-1.05,1.96l-1.4-0.013l-0.025-0.077c-0.051-1.026,0.418-1.945,1.407-2.756
		c0.988-0.81,2.247-1.215,3.774-1.215c1.519,0,2.741,0.386,3.666,1.158c0.925,0.772,1.387,1.88,1.387,3.322v6.771
		c0,0.484,0.027,0.955,0.083,1.413c0.055,0.458,0.146,0.912,0.273,1.362H571.114z M566.112,262.241c1.095,0,2.062-0.256,2.902-0.77
		c0.84-0.513,1.447-1.169,1.82-1.966v-2.877h-3.067c-1.383,0-2.489,0.295-3.316,0.885c-0.828,0.59-1.241,1.322-1.241,2.196
		c0,0.747,0.257,1.355,0.77,1.826C564.493,262.005,565.204,262.241,566.112,262.241z"/>
	<path fill="#010101" d="M279.68,293.306h9.165v1.298h-10.692v-18.533h1.527V293.306z"/>
	<path fill="#010101" d="M300.186,294.604c-0.102-0.467-0.174-0.87-0.216-1.209s-0.063-0.683-0.063-1.031
		c-0.509,0.721-1.188,1.32-2.037,1.795s-1.803,0.712-2.864,0.712c-1.341,0-2.383-0.356-3.125-1.069
		c-0.743-0.713-1.114-1.667-1.114-2.864c0-1.272,0.549-2.291,1.648-3.055c1.099-0.764,2.582-1.146,4.449-1.146h3.042v-1.706
		c0-0.984-0.316-1.757-0.948-2.317c-0.632-0.56-1.517-0.84-2.654-0.84c-1.061,0-1.941,0.267-2.641,0.802
		c-0.7,0.535-1.05,1.188-1.05,1.96l-1.4-0.013l-0.025-0.077c-0.051-1.026,0.418-1.945,1.407-2.756
		c0.988-0.81,2.247-1.215,3.774-1.215c1.519,0,2.741,0.386,3.666,1.158c0.925,0.772,1.387,1.88,1.387,3.322v6.771
		c0,0.484,0.027,0.955,0.083,1.413c0.055,0.458,0.146,0.912,0.273,1.362H300.186z M295.184,293.522c1.095,0,2.062-0.256,2.902-0.77
		c0.84-0.513,1.447-1.169,1.82-1.966v-2.877h-3.067c-1.383,0-2.489,0.295-3.316,0.885c-0.828,0.59-1.241,1.322-1.241,2.196
		c0,0.747,0.257,1.355,0.77,1.826C293.565,293.287,294.275,293.522,295.184,293.522z"/>
	<path fill="#010101" d="M313.729,291.097c0-0.643-0.265-1.206-0.795-1.689c-0.531-0.482-1.487-0.876-2.871-1.181
		c-1.646-0.356-2.862-0.828-3.646-1.413c-0.785-0.585-1.178-1.413-1.178-2.482c0-1.052,0.443-1.941,1.331-2.667
		c0.886-0.726,2.06-1.088,3.519-1.088c1.553,0,2.783,0.384,3.691,1.152s1.341,1.729,1.298,2.883l-0.025,0.077h-1.413
		c0-0.755-0.32-1.413-0.961-1.973s-1.504-0.84-2.59-0.84c-1.111,0-1.945,0.239-2.501,0.715c-0.556,0.477-0.833,1.037-0.833,1.678
		c0,0.633,0.239,1.157,0.719,1.57c0.479,0.414,1.437,0.777,2.871,1.089c1.638,0.366,2.864,0.866,3.679,1.5
		c0.814,0.634,1.222,1.496,1.222,2.586c0,1.149-0.464,2.079-1.394,2.79s-2.158,1.066-3.685,1.066c-1.672,0-2.985-0.398-3.939-1.196
		c-0.955-0.797-1.407-1.748-1.355-2.851l0.025-0.077h1.4c0.06,0.989,0.465,1.707,1.216,2.154s1.635,0.671,2.654,0.671
		c1.103,0,1.973-0.241,2.609-0.724C313.411,292.367,313.729,291.783,313.729,291.097z"/>
	<path fill="#010101" d="M330.722,291.473l0.369,1.235h0.076l0.369-1.235l5.562-15.401h1.655l-6.912,18.533h-1.438l-6.912-18.533
		h1.655L330.722,291.473z"/>
	<path fill="#010101" d="M345.779,294.872c-1.723,0-3.154-0.636-4.296-1.909c-1.141-1.273-1.712-2.885-1.712-4.837v-0.7
		c0-1.969,0.566-3.603,1.699-4.901s2.505-1.947,4.118-1.947c1.689,0,3.017,0.535,3.984,1.604c0.967,1.069,1.451,2.495,1.451,4.277
		v1.298h-9.725v0.369c0,1.549,0.412,2.845,1.235,3.886s1.905,1.562,3.246,1.562c0.951,0,1.761-0.131,2.431-0.395
		c0.67-0.263,1.243-0.641,1.719-1.133l0.649,1.044c-0.518,0.545-1.173,0.979-1.966,1.3
		C347.818,294.711,346.874,294.872,345.779,294.872z M345.588,281.876c-1.128,0-2.075,0.43-2.838,1.288
		c-0.764,0.859-1.209,1.936-1.336,3.23l0.025,0.063h8.07v-0.381c0-1.193-0.352-2.191-1.056-2.996
		C347.748,282.278,346.793,281.876,345.588,281.876z"/>
	<path fill="#010101" d="M353.442,287.833c0-2.198,0.469-3.957,1.406-5.276c0.938-1.319,2.242-1.979,3.914-1.979
		c0.976,0,1.82,0.214,2.533,0.643c0.712,0.429,1.302,1.033,1.769,1.814l0.178-2.202h1.286v13.594c0,1.773-0.49,3.174-1.47,4.201
		c-0.98,1.026-2.344,1.54-4.092,1.54c-0.662,0-1.366-0.081-2.113-0.242c-0.747-0.162-1.4-0.382-1.96-0.662l0.395-1.286
		c0.543,0.271,1.116,0.478,1.719,0.617c0.602,0.14,1.247,0.21,1.935,0.21c1.341,0,2.353-0.387,3.036-1.159s1.025-1.846,1.025-3.22
		v-1.731c-0.467,0.696-1.057,1.232-1.77,1.61s-1.544,0.566-2.495,0.566c-1.655,0-2.951-0.615-3.889-1.845s-1.406-2.873-1.406-4.926
		V287.833z M354.97,288.102c0,1.662,0.339,2.99,1.018,3.982c0.679,0.993,1.688,1.489,3.029,1.489c0.984,0,1.806-0.227,2.463-0.681
		c0.657-0.454,1.165-1.08,1.521-1.877v-6.39c-0.331-0.805-0.817-1.465-1.458-1.979c-0.641-0.514-1.475-0.771-2.501-0.771
		c-1.341,0-2.355,0.554-3.042,1.662c-0.687,1.108-1.031,2.54-1.031,4.295V288.102z"/>
	<path fill="#010101" d="M377.283,294.604c-0.102-0.467-0.174-0.87-0.216-1.209s-0.063-0.683-0.063-1.031
		c-0.509,0.721-1.188,1.32-2.037,1.795s-1.803,0.712-2.864,0.712c-1.341,0-2.383-0.356-3.125-1.069
		c-0.743-0.713-1.114-1.667-1.114-2.864c0-1.272,0.549-2.291,1.648-3.055c1.099-0.764,2.582-1.146,4.449-1.146h3.042v-1.706
		c0-0.984-0.316-1.757-0.948-2.317c-0.632-0.56-1.517-0.84-2.654-0.84c-1.061,0-1.941,0.267-2.641,0.802
		c-0.7,0.535-1.05,1.188-1.05,1.96l-1.4-0.013l-0.025-0.077c-0.051-1.026,0.418-1.945,1.407-2.756
		c0.988-0.81,2.247-1.215,3.774-1.215c1.519,0,2.741,0.386,3.666,1.158c0.925,0.772,1.387,1.88,1.387,3.322v6.771
		c0,0.484,0.027,0.955,0.083,1.413c0.055,0.458,0.146,0.912,0.273,1.362H377.283z M372.281,293.522c1.095,0,2.062-0.256,2.902-0.77
		c0.84-0.513,1.447-1.169,1.82-1.966v-2.877h-3.067c-1.383,0-2.489,0.295-3.316,0.885c-0.828,0.59-1.241,1.322-1.241,2.196
		c0,0.747,0.257,1.355,0.77,1.826C370.662,293.287,371.373,293.522,372.281,293.522z"/>
	<path fill="#010101" d="M390.826,291.097c0-0.643-0.265-1.206-0.795-1.689c-0.531-0.482-1.487-0.876-2.871-1.181
		c-1.646-0.356-2.862-0.828-3.646-1.413c-0.785-0.585-1.178-1.413-1.178-2.482c0-1.052,0.443-1.941,1.331-2.667
		c0.886-0.726,2.06-1.088,3.519-1.088c1.553,0,2.783,0.384,3.691,1.152s1.341,1.729,1.298,2.883l-0.025,0.077h-1.413
		c0-0.755-0.32-1.413-0.961-1.973s-1.504-0.84-2.59-0.84c-1.111,0-1.945,0.239-2.501,0.715c-0.556,0.477-0.833,1.037-0.833,1.678
		c0,0.633,0.239,1.157,0.719,1.57c0.479,0.414,1.437,0.777,2.871,1.089c1.638,0.366,2.864,0.866,3.679,1.5
		c0.814,0.634,1.222,1.496,1.222,2.586c0,1.149-0.464,2.079-1.394,2.79s-2.158,1.066-3.685,1.066c-1.672,0-2.985-0.398-3.939-1.196
		c-0.955-0.797-1.407-1.748-1.355-2.851l0.025-0.077h1.4c0.06,0.989,0.465,1.707,1.216,2.154s1.635,0.671,2.654,0.671
		c1.103,0,1.973-0.241,2.609-0.724C390.508,292.367,390.826,291.783,390.826,291.097z"/>
	<path fill="#010101" d="M413.292,288.1c0,2.062-0.467,3.706-1.4,4.933c-0.934,1.226-2.219,1.839-3.857,1.839
		c-1.01,0-1.879-0.202-2.609-0.604s-1.319-0.982-1.769-1.737l-0.166,2.075h-1.311v-19.856h1.527v8.248
		c0.458-0.772,1.043-1.369,1.756-1.789s1.562-0.63,2.546-0.63c1.655,0,2.949,0.66,3.882,1.979c0.933,1.32,1.4,3.079,1.4,5.276V288.1
		z M411.752,287.833c0-1.764-0.339-3.198-1.018-4.302c-0.679-1.104-1.685-1.655-3.017-1.655c-1.061,0-1.916,0.264-2.564,0.792
		c-0.649,0.529-1.131,1.206-1.445,2.033v6.251c0.339,0.801,0.846,1.438,1.521,1.912c0.675,0.473,1.513,0.709,2.514,0.709
		c1.332,0,2.333-0.494,3.004-1.482c0.67-0.989,1.005-2.318,1.005-3.989V287.833z"/>
	<path fill="#010101" d="M425.422,294.604c-0.102-0.467-0.174-0.87-0.216-1.209s-0.063-0.683-0.063-1.031
		c-0.509,0.721-1.188,1.32-2.037,1.795s-1.803,0.712-2.864,0.712c-1.341,0-2.383-0.356-3.125-1.069
		c-0.743-0.713-1.114-1.667-1.114-2.864c0-1.272,0.549-2.291,1.648-3.055c1.099-0.764,2.582-1.146,4.449-1.146h3.042v-1.706
		c0-0.984-0.316-1.757-0.948-2.317c-0.632-0.56-1.517-0.84-2.654-0.84c-1.061,0-1.941,0.267-2.641,0.802
		c-0.7,0.535-1.05,1.188-1.05,1.96l-1.4-0.013l-0.025-0.077c-0.051-1.026,0.418-1.945,1.407-2.756
		c0.988-0.81,2.247-1.215,3.774-1.215c1.519,0,2.741,0.386,3.666,1.158c0.925,0.772,1.387,1.88,1.387,3.322v6.771
		c0,0.484,0.027,0.955,0.083,1.413c0.055,0.458,0.146,0.912,0.273,1.362H425.422z M420.42,293.522c1.095,0,2.062-0.256,2.902-0.77
		c0.84-0.513,1.447-1.169,1.82-1.966v-2.877h-3.067c-1.383,0-2.489,0.295-3.316,0.885c-0.828,0.59-1.241,1.322-1.241,2.196
		c0,0.747,0.257,1.355,0.77,1.826C418.801,293.287,419.512,293.522,420.42,293.522z"/>
	<path fill="#010101" d="M438.965,291.097c0-0.643-0.265-1.206-0.795-1.689c-0.531-0.482-1.487-0.876-2.871-1.181
		c-1.646-0.356-2.862-0.828-3.646-1.413c-0.785-0.585-1.178-1.413-1.178-2.482c0-1.052,0.443-1.941,1.331-2.667
		c0.886-0.726,2.06-1.088,3.519-1.088c1.553,0,2.783,0.384,3.691,1.152s1.341,1.729,1.298,2.883l-0.025,0.077h-1.413
		c0-0.755-0.32-1.413-0.961-1.973s-1.504-0.84-2.59-0.84c-1.111,0-1.945,0.239-2.501,0.715c-0.556,0.477-0.833,1.037-0.833,1.678
		c0,0.633,0.239,1.157,0.719,1.57c0.479,0.414,1.437,0.777,2.871,1.089c1.638,0.366,2.864,0.866,3.679,1.5
		c0.814,0.634,1.222,1.496,1.222,2.586c0,1.149-0.464,2.079-1.394,2.79s-2.158,1.066-3.685,1.066c-1.672,0-2.985-0.398-3.939-1.196
		c-0.955-0.797-1.407-1.748-1.355-2.851l0.025-0.077h1.4c0.06,0.989,0.465,1.707,1.216,2.154s1.635,0.671,2.654,0.671
		c1.103,0,1.973-0.241,2.609-0.724C438.647,292.367,438.965,291.783,438.965,291.097z"/>
	<path fill="#010101" d="M449.161,294.872c-1.723,0-3.154-0.636-4.296-1.909c-1.141-1.273-1.712-2.885-1.712-4.837v-0.7
		c0-1.969,0.566-3.603,1.699-4.901s2.505-1.947,4.118-1.947c1.689,0,3.017,0.535,3.984,1.604c0.967,1.069,1.451,2.495,1.451,4.277
		v1.298h-9.725v0.369c0,1.549,0.412,2.845,1.235,3.886s1.905,1.562,3.246,1.562c0.951,0,1.761-0.131,2.431-0.395
		c0.67-0.263,1.243-0.641,1.719-1.133l0.649,1.044c-0.518,0.545-1.173,0.979-1.966,1.3
		C451.199,294.711,450.255,294.872,449.161,294.872z M448.97,281.876c-1.128,0-2.075,0.43-2.838,1.288
		c-0.764,0.859-1.209,1.936-1.336,3.23l0.025,0.063h8.07v-0.381c0-1.193-0.352-2.191-1.056-2.996
		C451.129,282.278,450.175,281.876,448.97,281.876z"/>
	<path fill="#010101" d="M456.824,287.833c0-2.198,0.464-3.957,1.394-5.276c0.929-1.319,2.225-1.979,3.889-1.979
		c0.959,0,1.791,0.204,2.495,0.611c0.705,0.407,1.29,0.984,1.757,1.731v-8.171h1.515v19.856h-1.349l-0.127-1.999
		c-0.458,0.73-1.048,1.29-1.77,1.68s-1.57,0.585-2.545,0.585c-1.646,0-2.934-0.613-3.863-1.839
		c-0.929-1.227-1.394-2.871-1.394-4.933V287.833z M458.351,288.102c0,1.671,0.333,3,0.999,3.989c0.666,0.988,1.669,1.482,3.01,1.482
		c0.984,0,1.805-0.221,2.463-0.665c0.658-0.443,1.169-1.057,1.534-1.841v-6.495c-0.348-0.801-0.84-1.451-1.477-1.949
		c-0.637-0.499-1.468-0.748-2.495-0.748c-1.341,0-2.348,0.552-3.023,1.655c-0.674,1.104-1.012,2.538-1.012,4.302V288.102z"/>
	<path fill="#010101" d="M481.924,289.36l0.56,2.838l0.077,0.013l0.7-2.851l3.92-13.289h1.438l3.92,13.289l0.675,2.864l0.076-0.013
		l0.598-2.851l3.348-13.289h1.553l-4.761,18.533h-1.438l-4.162-14.218l-0.483-1.948h-0.077l-0.471,1.948l-4.201,14.218h-1.451
		l-4.76-18.533h1.565L481.924,289.36z"/>
	<path fill="#010101" d="M506.389,294.872c-1.723,0-3.154-0.636-4.296-1.909c-1.141-1.273-1.712-2.885-1.712-4.837v-0.7
		c0-1.969,0.566-3.603,1.699-4.901s2.505-1.947,4.118-1.947c1.689,0,3.017,0.535,3.984,1.604c0.967,1.069,1.451,2.495,1.451,4.277
		v1.298h-9.725v0.369c0,1.549,0.412,2.845,1.235,3.886s1.905,1.562,3.246,1.562c0.951,0,1.761-0.131,2.431-0.395
		c0.67-0.263,1.243-0.641,1.719-1.133l0.649,1.044c-0.518,0.545-1.173,0.979-1.966,1.3
		C508.427,294.711,507.483,294.872,506.389,294.872z M506.198,281.876c-1.128,0-2.075,0.43-2.838,1.288
		c-0.764,0.859-1.209,1.936-1.336,3.23l0.025,0.063h8.07v-0.381c0-1.193-0.352-2.191-1.056-2.996
		C508.357,282.278,507.403,281.876,506.198,281.876z"/>
	<path fill="#010101" d="M525.749,288.1c0,2.062-0.467,3.706-1.4,4.933c-0.934,1.226-2.219,1.839-3.857,1.839
		c-1.01,0-1.879-0.202-2.609-0.604s-1.319-0.982-1.769-1.737l-0.166,2.075h-1.311v-19.856h1.527v8.248
		c0.458-0.772,1.043-1.369,1.756-1.789s1.562-0.63,2.546-0.63c1.655,0,2.949,0.66,3.882,1.979c0.933,1.32,1.4,3.079,1.4,5.276V288.1
		z M524.209,287.833c0-1.764-0.339-3.198-1.018-4.302c-0.679-1.104-1.685-1.655-3.017-1.655c-1.061,0-1.916,0.264-2.564,0.792
		c-0.649,0.529-1.131,1.206-1.445,2.033v6.251c0.339,0.801,0.846,1.438,1.521,1.912c0.675,0.473,1.513,0.709,2.514,0.709
		c1.332,0,2.333-0.494,3.004-1.482c0.67-0.989,1.005-2.318,1.005-3.989V287.833z"/>
	<path fill="#010101" d="M544.218,294.604c-0.102-0.467-0.174-0.87-0.216-1.209s-0.063-0.683-0.063-1.031
		c-0.509,0.721-1.188,1.32-2.037,1.795s-1.803,0.712-2.864,0.712c-1.341,0-2.383-0.356-3.125-1.069
		c-0.743-0.713-1.114-1.667-1.114-2.864c0-1.272,0.549-2.291,1.648-3.055c1.099-0.764,2.582-1.146,4.449-1.146h3.042v-1.706
		c0-0.984-0.316-1.757-0.948-2.317c-0.632-0.56-1.517-0.84-2.654-0.84c-1.061,0-1.941,0.267-2.641,0.802
		c-0.7,0.535-1.05,1.188-1.05,1.96l-1.4-0.013l-0.025-0.077c-0.051-1.026,0.418-1.945,1.407-2.756
		c0.988-0.81,2.247-1.215,3.774-1.215c1.519,0,2.741,0.386,3.666,1.158c0.925,0.772,1.387,1.88,1.387,3.322v6.771
		c0,0.484,0.027,0.955,0.083,1.413c0.055,0.458,0.146,0.912,0.273,1.362H544.218z M539.216,293.522c1.095,0,2.062-0.256,2.902-0.77
		c0.84-0.513,1.447-1.169,1.82-1.966v-2.877h-3.067c-1.383,0-2.489,0.295-3.316,0.885c-0.828,0.59-1.241,1.322-1.241,2.196
		c0,0.747,0.257,1.355,0.77,1.826C537.598,293.287,538.308,293.522,539.216,293.522z"/>
	<path fill="#010101" d="M550.863,280.832l0.14,2.406c0.441-0.849,1.037-1.504,1.788-1.966s1.64-0.694,2.667-0.694
		c1.493,0,2.63,0.456,3.411,1.368c0.781,0.913,1.171,2.336,1.171,4.271v8.388h-1.527v-8.392c0-1.582-0.295-2.7-0.885-3.354
		s-1.428-0.982-2.514-0.982c-1.069,0-1.941,0.283-2.616,0.848c-0.675,0.565-1.161,1.316-1.458,2.251v9.629h-1.527v-13.772H550.863z"
		/>
	<path fill="#010101" d="M563.426,287.833c0-2.198,0.464-3.957,1.394-5.276c0.929-1.319,2.225-1.979,3.889-1.979
		c0.959,0,1.791,0.204,2.495,0.611c0.705,0.407,1.29,0.984,1.757,1.731v-8.171h1.515v19.856h-1.349l-0.127-1.999
		c-0.458,0.73-1.048,1.29-1.77,1.68s-1.57,0.585-2.545,0.585c-1.646,0-2.934-0.613-3.863-1.839
		c-0.929-1.227-1.394-2.871-1.394-4.933V287.833z M564.953,288.102c0,1.671,0.333,3,0.999,3.989c0.666,0.988,1.669,1.482,3.01,1.482
		c0.984,0,1.805-0.221,2.463-0.665c0.658-0.443,1.169-1.057,1.534-1.841v-6.495c-0.348-0.801-0.84-1.451-1.477-1.949
		c-0.637-0.499-1.468-0.748-2.495-0.748c-1.341,0-2.348,0.552-3.023,1.655c-0.674,1.104-1.012,2.538-1.012,4.302V288.102z"/>
	<path fill="#010101" d="M291.377,323.684c-0.416,0.603-1.173,1.165-2.272,1.687c-1.099,0.522-2.484,0.783-4.156,0.783
		c-2.155,0-3.922-0.734-5.301-2.202c-1.379-1.468-2.068-3.369-2.068-5.703v-3.398c0-2.291,0.655-4.158,1.966-5.601
		c1.312-1.442,3.011-2.164,5.098-2.164c1.994,0,3.553,0.499,4.678,1.496c1.124,0.998,1.775,2.293,1.954,3.889l-0.025,0.077h-1.413
		c-0.221-1.239-0.743-2.243-1.566-3.011c-0.823-0.768-2.032-1.152-3.627-1.152c-1.664,0-3.002,0.602-4.016,1.806
		s-1.521,2.748-1.521,4.63v3.421c0,1.933,0.539,3.519,1.617,4.756c1.078,1.238,2.486,1.857,4.226,1.857
		c1.23,0,2.276-0.171,3.138-0.514s1.449-0.718,1.763-1.125v-4.827h-4.926v-1.298h6.454V323.684z"/>
	<path fill="#010101" d="M301.904,313.425l-1.133-0.076c-0.959,0-1.746,0.27-2.361,0.808c-0.615,0.539-1.055,1.279-1.317,2.221
		v9.508h-1.527v-13.772h1.336l0.191,2.291v0.153c0.399-0.848,0.933-1.51,1.604-1.985c0.67-0.475,1.468-0.713,2.393-0.713
		c0.195,0,0.384,0.015,0.566,0.044s0.333,0.062,0.452,0.096L301.904,313.425z"/>
	<path fill="#010101" d="M313.156,325.886c-0.102-0.467-0.174-0.87-0.216-1.209s-0.063-0.683-0.063-1.031
		c-0.509,0.721-1.188,1.32-2.037,1.795s-1.803,0.712-2.864,0.712c-1.341,0-2.383-0.356-3.125-1.069
		c-0.743-0.713-1.114-1.667-1.114-2.864c0-1.272,0.549-2.291,1.648-3.055c1.099-0.764,2.582-1.146,4.449-1.146h3.042v-1.706
		c0-0.984-0.316-1.757-0.948-2.317c-0.632-0.56-1.517-0.84-2.654-0.84c-1.061,0-1.941,0.267-2.641,0.802
		c-0.7,0.535-1.05,1.188-1.05,1.96l-1.4-0.013l-0.025-0.077c-0.051-1.026,0.418-1.945,1.407-2.756
		c0.988-0.81,2.247-1.215,3.774-1.215c1.519,0,2.741,0.386,3.666,1.158c0.925,0.772,1.387,1.88,1.387,3.322v6.771
		c0,0.484,0.027,0.955,0.083,1.413c0.055,0.458,0.146,0.912,0.273,1.362H313.156z M308.154,324.804c1.095,0,2.062-0.256,2.902-0.77
		c0.84-0.513,1.447-1.169,1.82-1.966v-2.877h-3.067c-1.383,0-2.489,0.295-3.316,0.885c-0.828,0.59-1.241,1.322-1.241,2.196
		c0,0.747,0.257,1.355,0.77,1.826C306.535,324.569,307.246,324.804,308.154,324.804z"/>
	<path fill="#010101" d="M329.538,319.382c0,2.062-0.467,3.706-1.4,4.933c-0.934,1.226-2.219,1.839-3.857,1.839
		c-0.967,0-1.814-0.182-2.54-0.547c-0.725-0.365-1.317-0.886-1.775-1.565v7.141h-1.527v-19.067h1.286l0.191,2.139
		c0.458-0.764,1.05-1.354,1.775-1.77c0.726-0.416,1.581-0.624,2.565-0.624c1.655,0,2.949,0.66,3.882,1.979
		c0.933,1.32,1.4,3.079,1.4,5.276V319.382z M328.01,319.096c0-1.75-0.348-3.177-1.044-4.282c-0.696-1.104-1.714-1.656-3.055-1.656
		c-1.027,0-1.86,0.244-2.501,0.732c-0.641,0.489-1.123,1.124-1.445,1.905v6.626c0.348,0.756,0.851,1.351,1.508,1.784
		s1.479,0.649,2.463,0.649c1.332,0,2.344-0.501,3.036-1.503c0.692-1.002,1.038-2.332,1.038-3.988V319.096z"/>
	<path fill="#010101" d="M334.489,314.469c0.458-0.823,1.069-1.464,1.833-1.922c0.764-0.458,1.655-0.688,2.673-0.688
		c1.451,0,2.565,0.45,3.341,1.349s1.165,2.295,1.165,4.188v8.49h-1.527v-8.533c0-1.496-0.295-2.57-0.885-3.22
		s-1.402-0.976-2.438-0.976c-1.043,0-1.916,0.274-2.616,0.823c-0.7,0.548-1.215,1.277-1.546,2.187v9.719h-1.527V306.03h1.527
		V314.469z"/>
	<path fill="#010101" d="M349.178,308.168h-1.515v-2.138h1.515V308.168z M349.178,325.886h-1.515v-13.772h1.515V325.886z"/>
	<path fill="#010101" d="M358.495,324.855c1.01,0,1.901-0.287,2.673-0.862c0.772-0.575,1.159-1.374,1.159-2.396h1.349l0.025,0.076
		c0.042,1.273-0.467,2.338-1.527,3.195c-1.061,0.857-2.287,1.285-3.679,1.285c-1.875,0-3.324-0.643-4.347-1.928
		c-1.023-1.286-1.534-2.938-1.534-4.958v-0.535c0-2.003,0.513-3.649,1.54-4.939c1.026-1.29,2.469-1.935,4.328-1.935
		c1.51,0,2.769,0.445,3.774,1.336c1.006,0.891,1.491,2.062,1.458,3.513l-0.025,0.076h-1.362c0-1.103-0.372-1.983-1.114-2.641
		c-0.743-0.657-1.653-0.986-2.73-0.986c-1.477,0-2.569,0.528-3.278,1.583s-1.062,2.384-1.062,3.986v0.534
		c0,1.627,0.352,2.967,1.056,4.018C355.903,324.33,357.001,324.855,358.495,324.855z"/>
	<path fill="#010101" d="M373.655,325.886v-18.533h5.384c2.266,0,4.137,0.755,5.613,2.266s2.215,3.449,2.215,5.817v2.38
		c0,2.376-0.738,4.315-2.215,5.817s-3.348,2.253-5.613,2.253H373.655z M375.169,308.652v15.936h3.87c1.833,0,3.341-0.64,4.525-1.92
		s1.776-2.9,1.776-4.858v-2.417c0-1.933-0.594-3.54-1.782-4.82s-2.694-1.92-4.519-1.92H375.169z"/>
	<path fill="#010101" d="M395.51,326.153c-1.723,0-3.154-0.636-4.296-1.909c-1.141-1.273-1.712-2.885-1.712-4.837v-0.7
		c0-1.969,0.566-3.603,1.699-4.901s2.505-1.947,4.118-1.947c1.689,0,3.017,0.535,3.984,1.604c0.967,1.069,1.451,2.495,1.451,4.277
		v1.298h-9.725v0.369c0,1.549,0.412,2.845,1.235,3.886s1.905,1.562,3.246,1.562c0.951,0,1.761-0.131,2.431-0.395
		c0.67-0.263,1.243-0.641,1.719-1.133l0.649,1.044c-0.518,0.545-1.173,0.979-1.966,1.3
		C397.548,325.993,396.604,326.153,395.51,326.153z M395.319,313.158c-1.128,0-2.075,0.43-2.838,1.288
		c-0.764,0.859-1.209,1.936-1.336,3.23l0.025,0.063h8.07v-0.381c0-1.193-0.352-2.191-1.056-2.996
		C397.479,313.56,396.524,313.158,395.319,313.158z"/>
	<path fill="#010101" d="M412.019,322.379c0-0.643-0.265-1.206-0.795-1.689c-0.531-0.482-1.487-0.876-2.871-1.181
		c-1.646-0.356-2.862-0.828-3.646-1.413c-0.785-0.585-1.178-1.413-1.178-2.482c0-1.052,0.443-1.941,1.331-2.667
		c0.886-0.726,2.06-1.088,3.519-1.088c1.553,0,2.783,0.384,3.691,1.152s1.341,1.729,1.298,2.883l-0.025,0.077h-1.413
		c0-0.755-0.32-1.413-0.961-1.973s-1.504-0.84-2.59-0.84c-1.111,0-1.945,0.239-2.501,0.715c-0.556,0.477-0.833,1.037-0.833,1.678
		c0,0.633,0.239,1.157,0.719,1.57c0.479,0.414,1.437,0.777,2.871,1.089c1.638,0.366,2.864,0.866,3.679,1.5
		c0.814,0.634,1.222,1.496,1.222,2.586c0,1.149-0.464,2.079-1.394,2.79s-2.158,1.066-3.685,1.066c-1.672,0-2.985-0.398-3.939-1.196
		c-0.955-0.797-1.407-1.748-1.355-2.851l0.025-0.077h1.4c0.06,0.989,0.465,1.707,1.216,2.154s1.635,0.671,2.654,0.671
		c1.103,0,1.973-0.241,2.609-0.724C411.701,323.649,412.019,323.065,412.019,322.379z"/>
	<path fill="#010101" d="M418.752,308.168h-1.515v-2.138h1.515V308.168z M418.752,325.886h-1.515v-13.772h1.515V325.886z"/>
	<path fill="#010101" d="M422.368,319.115c0-2.198,0.469-3.957,1.406-5.276c0.938-1.319,2.242-1.979,3.914-1.979
		c0.976,0,1.82,0.214,2.533,0.643c0.712,0.429,1.302,1.033,1.769,1.814l0.178-2.202h1.286v13.594c0,1.773-0.49,3.174-1.47,4.201
		c-0.98,1.026-2.344,1.54-4.092,1.54c-0.662,0-1.366-0.081-2.113-0.242c-0.747-0.162-1.4-0.382-1.96-0.662l0.395-1.286
		c0.543,0.271,1.116,0.478,1.719,0.617c0.602,0.14,1.247,0.21,1.935,0.21c1.341,0,2.353-0.387,3.036-1.159s1.025-1.846,1.025-3.22
		v-1.731c-0.467,0.696-1.057,1.232-1.77,1.61s-1.544,0.566-2.495,0.566c-1.655,0-2.951-0.615-3.889-1.845s-1.406-2.873-1.406-4.926
		V319.115z M423.895,319.383c0,1.662,0.339,2.99,1.018,3.982c0.679,0.993,1.688,1.489,3.029,1.489c0.984,0,1.806-0.227,2.463-0.681
		c0.657-0.454,1.165-1.08,1.521-1.877v-6.39c-0.331-0.805-0.817-1.465-1.458-1.979c-0.641-0.514-1.475-0.771-2.501-0.771
		c-1.341,0-2.355,0.554-3.042,1.662c-0.687,1.108-1.031,2.54-1.031,4.295V319.383z"/>
	<path fill="#010101" d="M438.838,312.114l0.14,2.406c0.441-0.849,1.037-1.504,1.788-1.966s1.64-0.694,2.667-0.694
		c1.493,0,2.63,0.456,3.411,1.368c0.781,0.913,1.171,2.336,1.171,4.271v8.388h-1.527v-8.392c0-1.582-0.295-2.7-0.885-3.354
		s-1.428-0.982-2.514-0.982c-1.069,0-1.941,0.283-2.616,0.848c-0.675,0.565-1.161,1.316-1.458,2.251v9.629h-1.527v-13.772H438.838z"
		/>
	<path fill="#010101" d="M457.167,326.153c-1.723,0-3.154-0.636-4.296-1.909c-1.141-1.273-1.712-2.885-1.712-4.837v-0.7
		c0-1.969,0.566-3.603,1.699-4.901s2.505-1.947,4.118-1.947c1.689,0,3.017,0.535,3.984,1.604c0.967,1.069,1.451,2.495,1.451,4.277
		v1.298h-9.725v0.369c0,1.549,0.412,2.845,1.235,3.886s1.905,1.562,3.246,1.562c0.951,0,1.761-0.131,2.431-0.395
		c0.67-0.263,1.243-0.641,1.719-1.133l0.649,1.044c-0.518,0.545-1.173,0.979-1.966,1.3
		C459.206,325.993,458.262,326.153,457.167,326.153z M456.976,313.158c-1.128,0-2.075,0.43-2.838,1.288
		c-0.764,0.859-1.209,1.936-1.336,3.23l0.025,0.063h8.07v-0.381c0-1.193-0.352-2.191-1.056-2.996
		C459.136,313.56,458.181,313.158,456.976,313.158z"/>
	<path fill="#010101" d="M471.767,313.425l-1.133-0.076c-0.959,0-1.746,0.27-2.361,0.808c-0.615,0.539-1.055,1.279-1.317,2.221
		v9.508h-1.527v-13.772h1.336l0.191,2.291v0.153c0.399-0.848,0.933-1.51,1.604-1.985c0.67-0.475,1.468-0.713,2.393-0.713
		c0.195,0,0.384,0.015,0.566,0.044s0.333,0.062,0.452,0.096L471.767,313.425z"/>
	<path fill="#010101" d="M474.593,325.886h-1.744v-2.087h1.744V325.886z"/>
	<path fill="#010101" d="M499.287,325.886h-1.515v-8.528h-10.54v8.528h-1.515v-18.533h1.515v8.706h10.54v-8.706h1.515V325.886z"/>
	<path fill="#010101" d="M508.896,326.153c-1.723,0-3.154-0.636-4.296-1.909c-1.141-1.273-1.712-2.885-1.712-4.837v-0.7
		c0-1.969,0.566-3.603,1.699-4.901s2.505-1.947,4.118-1.947c1.689,0,3.017,0.535,3.984,1.604c0.967,1.069,1.451,2.495,1.451,4.277
		v1.298h-9.725v0.369c0,1.549,0.412,2.845,1.235,3.886s1.905,1.562,3.246,1.562c0.951,0,1.761-0.131,2.431-0.395
		c0.67-0.263,1.243-0.641,1.719-1.133l0.649,1.044c-0.518,0.545-1.173,0.979-1.966,1.3
		C510.935,325.993,509.991,326.153,508.896,326.153z M508.705,313.158c-1.128,0-2.075,0.43-2.838,1.288
		c-0.764,0.859-1.209,1.936-1.336,3.23l0.025,0.063h8.07v-0.381c0-1.193-0.352-2.191-1.056-2.996
		C510.865,313.56,509.91,313.158,508.705,313.158z"/>
	<path fill="#010101" d="M523.496,313.425l-1.133-0.076c-0.959,0-1.746,0.27-2.361,0.808c-0.615,0.539-1.055,1.279-1.317,2.221
		v9.508h-1.527v-13.772h1.336l0.191,2.291v0.153c0.399-0.848,0.933-1.51,1.604-1.985c0.67-0.475,1.468-0.713,2.393-0.713
		c0.195,0,0.384,0.015,0.566,0.044s0.333,0.062,0.452,0.096L523.496,313.425z"/>
	<path fill="#010101" d="M530.955,326.153c-1.723,0-3.154-0.636-4.296-1.909c-1.141-1.273-1.712-2.885-1.712-4.837v-0.7
		c0-1.969,0.566-3.603,1.699-4.901s2.505-1.947,4.118-1.947c1.689,0,3.017,0.535,3.984,1.604c0.967,1.069,1.451,2.495,1.451,4.277
		v1.298h-9.725v0.369c0,1.549,0.412,2.845,1.235,3.886s1.905,1.562,3.246,1.562c0.951,0,1.761-0.131,2.431-0.395
		c0.67-0.263,1.243-0.641,1.719-1.133l0.649,1.044c-0.518,0.545-1.173,0.979-1.966,1.3
		C532.994,325.993,532.05,326.153,530.955,326.153z M530.764,313.158c-1.128,0-2.075,0.43-2.838,1.288
		c-0.764,0.859-1.209,1.936-1.336,3.23l0.025,0.063h8.07v-0.381c0-1.193-0.352-2.191-1.056-2.996
		C532.924,313.56,531.969,313.158,530.764,313.158z"/>
	<path fill="#010101" d="M549.462,322.157l0.483,1.642h0.077l4.162-11.685h1.706l-5.982,15.975c-0.356,0.933-0.819,1.727-1.387,2.38
		c-0.569,0.653-1.4,0.98-2.495,0.98c-0.178,0-0.395-0.019-0.649-0.058c-0.255-0.038-0.441-0.078-0.56-0.121l0.178-1.273
		c0.102,0.017,0.265,0.036,0.49,0.057c0.225,0.021,0.388,0.032,0.49,0.032c0.662,0,1.192-0.236,1.591-0.707
		c0.398-0.471,0.738-1.076,1.018-1.814l0.726-1.858l-5.321-13.594h1.693L549.462,322.157z"/>
	<path fill="#010101" d="M557.265,318.796c0-2.028,0.556-3.691,1.667-4.99s2.584-1.947,4.417-1.947c1.841,0,3.318,0.649,4.43,1.947
		c1.111,1.298,1.667,2.962,1.667,4.99v0.42c0,2.037-0.554,3.702-1.661,4.996c-1.107,1.294-2.578,1.941-4.411,1.941
		c-1.85,0-3.331-0.647-4.442-1.941s-1.667-2.959-1.667-4.996V318.796z M558.792,319.21c0,1.594,0.403,2.933,1.209,4.018
		c0.806,1.085,1.93,1.627,3.373,1.627c1.417,0,2.531-0.542,3.341-1.627c0.81-1.084,1.215-2.424,1.215-4.018v-0.42
		c0-1.568-0.407-2.899-1.222-3.992c-0.815-1.093-1.935-1.64-3.36-1.64c-1.426,0-2.542,0.547-3.348,1.64s-1.209,2.424-1.209,3.992
		V319.21z"/>
	<path fill="#010101" d="M581.653,323.633c-0.441,0.806-1.035,1.428-1.782,1.865c-0.747,0.437-1.629,0.655-2.648,0.655
		c-1.451,0-2.588-0.492-3.411-1.476s-1.234-2.512-1.234-4.583v-7.981h1.527v8.022c0,1.684,0.286,2.891,0.859,3.622
		c0.573,0.731,1.385,1.097,2.438,1.097c1.154,0,2.075-0.259,2.762-0.778s1.167-1.233,1.438-2.143v-9.821h1.527v13.772h-1.349
		L581.653,323.633z"/>
	<path fill="#010101" d="M280.698,352.701l0.521,2.457h0.077l0.649-2.457l2.928-9.305h1.311l2.928,9.305l0.662,2.521h0.077
		l0.573-2.521l2.507-9.305h1.579l-4.01,13.772h-1.298l-3.055-9.419l-0.598-2.38h-0.077l-0.611,2.38l-3.004,9.419h-1.311
		l-3.997-13.772h1.579L280.698,352.701z"/>
	<path fill="#010101" d="M299.167,339.45h-1.515v-2.138h1.515V339.45z M299.167,357.168h-1.515v-13.772h1.515V357.168z"/>
	<path fill="#010101" d="M305.086,357.168h-1.515v-19.856h1.515V357.168z"/>
	<path fill="#010101" d="M311.005,357.168h-1.515v-19.856h1.515V357.168z"/>
	<path fill="#010101" d="M322.448,357.168v-12.525h-2.292v-1.248h2.292v-1.756c0-1.459,0.403-2.59,1.209-3.392
		c0.806-0.802,1.926-1.203,3.36-1.203c0.568,0,1.146,0.064,1.731,0.191c0.585,0.127,1.18,0.314,1.782,0.56l-0.255,1.311
		c-0.518-0.212-1.018-0.377-1.502-0.496c-0.483-0.119-1.035-0.178-1.654-0.178c-1.036,0-1.818,0.276-2.349,0.827
		c-0.53,0.552-0.795,1.345-0.795,2.38v1.756h3.22v1.248h-3.22v12.525H322.448z M331.358,357.168h-1.527v-13.772h1.527V357.168z"/>
	<path fill="#010101" d="M336.908,343.396l0.14,2.406c0.441-0.849,1.037-1.504,1.788-1.966s1.64-0.694,2.667-0.694
		c1.493,0,2.63,0.456,3.411,1.368c0.781,0.913,1.171,2.336,1.171,4.271v8.388h-1.527v-8.392c0-1.582-0.295-2.7-0.885-3.354
		s-1.428-0.982-2.514-0.982c-1.069,0-1.941,0.283-2.616,0.848c-0.675,0.565-1.161,1.316-1.458,2.251v9.629h-1.527v-13.772H336.908z"
		/>
	<path fill="#010101" d="M349.471,350.397c0-2.198,0.464-3.957,1.394-5.276c0.929-1.319,2.225-1.979,3.889-1.979
		c0.959,0,1.791,0.204,2.495,0.611c0.705,0.407,1.29,0.984,1.757,1.731v-8.171h1.515v19.856h-1.349l-0.127-1.999
		c-0.458,0.73-1.048,1.29-1.77,1.68s-1.57,0.585-2.545,0.585c-1.646,0-2.934-0.613-3.863-1.839
		c-0.929-1.227-1.394-2.871-1.394-4.933V350.397z M350.998,350.666c0,1.671,0.333,3,0.999,3.989c0.666,0.988,1.669,1.482,3.01,1.482
		c0.984,0,1.805-0.221,2.463-0.665c0.658-0.443,1.169-1.057,1.534-1.841v-6.495c-0.348-0.801-0.84-1.451-1.477-1.949
		c-0.637-0.499-1.468-0.748-2.495-0.748c-1.341,0-2.348,0.552-3.023,1.655c-0.674,1.104-1.012,2.538-1.012,4.302V350.666z"/>
	<path fill="#010101" d="M372.204,343.396l0.14,2.278c0.441-0.806,1.029-1.43,1.763-1.871c0.734-0.441,1.61-0.662,2.628-0.662
		c1.052,0,1.933,0.254,2.641,0.764s1.216,1.286,1.521,2.329c0.416-0.967,1.008-1.725,1.776-2.272
		c0.768-0.547,1.703-0.821,2.807-0.821c1.468,0,2.601,0.488,3.398,1.464c0.797,0.976,1.196,2.486,1.196,4.531v8.032h-1.527v-8.073
		c0-1.701-0.299-2.901-0.897-3.603c-0.598-0.702-1.432-1.052-2.501-1.052c-1.18,0-2.092,0.37-2.737,1.109s-1.043,1.688-1.196,2.844
		c0,0.06,0.002,0.145,0.006,0.255c0.004,0.11,0.006,0.191,0.006,0.242v8.277h-1.54v-8.073c0-1.667-0.304-2.859-0.91-3.578
		c-0.607-0.718-1.44-1.078-2.501-1.078c-1.078,0-1.933,0.274-2.564,0.823c-0.632,0.548-1.076,1.286-1.33,2.213v9.693h-1.541v-13.772
		H372.204z"/>
	<path fill="#010101" d="M397.929,353.439l0.483,1.642h0.077l4.162-11.685h1.706l-5.982,15.975c-0.356,0.933-0.819,1.727-1.387,2.38
		c-0.569,0.653-1.4,0.98-2.495,0.98c-0.178,0-0.395-0.019-0.649-0.058c-0.255-0.038-0.441-0.078-0.56-0.121l0.178-1.273
		c0.102,0.017,0.265,0.036,0.49,0.057c0.225,0.021,0.388,0.032,0.49,0.032c0.662,0,1.192-0.236,1.591-0.707
		c0.398-0.471,0.738-1.076,1.018-1.814l0.726-1.858l-5.321-13.594h1.693L397.929,353.439z"/>
	<path fill="#010101" d="M414.819,357.168h-1.515v-19.856h1.515V357.168z"/>
	<path fill="#010101" d="M427.751,357.168c-0.102-0.467-0.174-0.87-0.216-1.209s-0.063-0.683-0.063-1.031
		c-0.509,0.721-1.188,1.32-2.037,1.795s-1.803,0.712-2.864,0.712c-1.341,0-2.383-0.356-3.125-1.069
		c-0.743-0.713-1.114-1.667-1.114-2.864c0-1.272,0.549-2.291,1.648-3.055c1.099-0.764,2.582-1.146,4.449-1.146h3.042v-1.706
		c0-0.984-0.316-1.757-0.948-2.317c-0.632-0.56-1.517-0.84-2.654-0.84c-1.061,0-1.941,0.267-2.641,0.802
		c-0.7,0.535-1.05,1.188-1.05,1.96l-1.4-0.013l-0.025-0.077c-0.051-1.026,0.418-1.945,1.407-2.756
		c0.988-0.81,2.247-1.215,3.774-1.215c1.519,0,2.741,0.386,3.666,1.158c0.925,0.772,1.387,1.88,1.387,3.322v6.771
		c0,0.484,0.027,0.955,0.083,1.413c0.055,0.458,0.146,0.912,0.273,1.362H427.751z M422.75,356.086c1.095,0,2.062-0.256,2.902-0.77
		c0.84-0.513,1.447-1.169,1.82-1.966v-2.877h-3.067c-1.383,0-2.489,0.295-3.316,0.885c-0.828,0.59-1.241,1.322-1.241,2.196
		c0,0.747,0.257,1.355,0.77,1.826C421.131,355.851,421.841,356.086,422.75,356.086z"/>
	<path fill="#010101" d="M435.44,339.87v3.526h3.029v1.248h-3.029v8.974c0,0.899,0.163,1.538,0.49,1.916
		c0.327,0.378,0.762,0.566,1.305,0.566c0.246,0,0.486-0.01,0.719-0.032c0.233-0.021,0.503-0.057,0.808-0.108l0.229,1.133
		c-0.255,0.11-0.564,0.195-0.929,0.254c-0.365,0.059-0.73,0.089-1.095,0.089c-0.967,0-1.721-0.305-2.259-0.916
		c-0.539-0.611-0.809-1.579-0.809-2.902v-8.974h-2.38v-1.248h2.38v-3.526H435.44z"/>
	<path fill="#010101" d="M446.87,357.436c-1.723,0-3.154-0.636-4.296-1.909c-1.141-1.273-1.712-2.885-1.712-4.837v-0.7
		c0-1.969,0.566-3.603,1.699-4.901s2.505-1.947,4.118-1.947c1.689,0,3.017,0.535,3.984,1.604c0.967,1.069,1.451,2.495,1.451,4.277
		v1.298h-9.725v0.369c0,1.549,0.412,2.845,1.235,3.886s1.905,1.562,3.246,1.562c0.951,0,1.761-0.131,2.431-0.395
		c0.67-0.263,1.243-0.641,1.719-1.133l0.649,1.044c-0.518,0.545-1.173,0.979-1.966,1.3
		C448.908,357.275,447.964,357.436,446.87,357.436z M446.679,344.44c-1.128,0-2.075,0.43-2.838,1.288
		c-0.764,0.859-1.209,1.936-1.336,3.23l0.025,0.063h8.07v-0.381c0-1.193-0.352-2.191-1.056-2.996
		C448.838,344.842,447.884,344.44,446.679,344.44z"/>
	<path fill="#010101" d="M463.379,353.661c0-0.643-0.265-1.206-0.795-1.689c-0.531-0.482-1.487-0.876-2.871-1.181
		c-1.646-0.356-2.862-0.828-3.646-1.413c-0.785-0.585-1.178-1.413-1.178-2.482c0-1.052,0.443-1.941,1.331-2.667
		c0.886-0.726,2.06-1.088,3.519-1.088c1.553,0,2.783,0.384,3.691,1.152s1.341,1.729,1.298,2.883l-0.025,0.077h-1.413
		c0-0.755-0.32-1.413-0.961-1.973s-1.504-0.84-2.59-0.84c-1.111,0-1.945,0.239-2.501,0.715c-0.556,0.477-0.833,1.037-0.833,1.678
		c0,0.633,0.239,1.157,0.719,1.57c0.479,0.414,1.437,0.777,2.871,1.089c1.638,0.366,2.864,0.866,3.679,1.5
		c0.814,0.634,1.222,1.496,1.222,2.586c0,1.149-0.464,2.079-1.394,2.79s-2.158,1.066-3.685,1.066c-1.672,0-2.985-0.398-3.939-1.196
		c-0.955-0.797-1.407-1.748-1.355-2.851l0.025-0.077h1.4c0.06,0.989,0.465,1.707,1.216,2.154s1.635,0.671,2.654,0.671
		c1.103,0,1.973-0.241,2.609-0.724C463.061,354.931,463.379,354.347,463.379,353.661z"/>
	<path fill="#010101" d="M470.8,339.87v3.526h3.029v1.248H470.8v8.974c0,0.899,0.163,1.538,0.49,1.916
		c0.327,0.378,0.762,0.566,1.305,0.566c0.246,0,0.486-0.01,0.719-0.032c0.233-0.021,0.503-0.057,0.808-0.108l0.229,1.133
		c-0.255,0.11-0.564,0.195-0.929,0.254c-0.365,0.059-0.73,0.089-1.095,0.089c-0.967,0-1.721-0.305-2.259-0.916
		c-0.539-0.611-0.809-1.579-0.809-2.902v-8.974h-2.38v-1.248h2.38v-3.526H470.8z"/>
	<path fill="#010101" d="M486.367,352.701l0.521,2.457h0.077l0.649-2.457l2.928-9.305h1.311l2.928,9.305l0.662,2.521h0.077
		l0.573-2.521l2.507-9.305h1.579l-4.01,13.772h-1.298l-3.055-9.419l-0.598-2.38h-0.077l-0.611,2.38l-3.004,9.419h-1.311
		l-3.997-13.772h1.579L486.367,352.701z"/>
	<path fill="#010101" d="M502.277,350.079c0-2.028,0.556-3.691,1.667-4.99s2.584-1.947,4.417-1.947c1.841,0,3.318,0.649,4.43,1.947
		c1.111,1.298,1.667,2.962,1.667,4.99v0.42c0,2.037-0.554,3.702-1.661,4.996c-1.107,1.294-2.578,1.941-4.411,1.941
		c-1.85,0-3.331-0.647-4.442-1.941s-1.667-2.959-1.667-4.996V350.079z M503.805,350.492c0,1.594,0.403,2.933,1.209,4.018
		c0.806,1.085,1.93,1.627,3.373,1.627c1.417,0,2.531-0.542,3.341-1.627c0.81-1.084,1.215-2.424,1.215-4.018v-0.42
		c0-1.568-0.407-2.899-1.222-3.992c-0.815-1.093-1.935-1.64-3.36-1.64c-1.426,0-2.542,0.547-3.348,1.64s-1.209,2.424-1.209,3.992
		V350.492z"/>
	<path fill="#010101" d="M523.98,344.707l-1.133-0.076c-0.959,0-1.746,0.27-2.361,0.808c-0.615,0.539-1.055,1.279-1.317,2.221v9.508
		h-1.527v-13.772h1.336l0.191,2.291v0.153c0.399-0.848,0.933-1.51,1.604-1.985c0.67-0.475,1.468-0.713,2.393-0.713
		c0.195,0,0.384,0.015,0.566,0.044s0.333,0.062,0.452,0.096L523.98,344.707z"/>
	<path fill="#010101" d="M529.809,350.448h-1.756v6.721h-1.527v-19.856h1.527v11.837h1.604l5.117-5.753h1.782l0.025,0.064
		l-5.512,6.207l6.084,7.438l-0.038,0.063h-1.744L529.809,350.448z"/>
	<path fill="#010101" d="M547.566,353.661c0-0.643-0.265-1.206-0.795-1.689c-0.531-0.482-1.487-0.876-2.871-1.181
		c-1.646-0.356-2.862-0.828-3.646-1.413c-0.785-0.585-1.178-1.413-1.178-2.482c0-1.052,0.443-1.941,1.331-2.667
		c0.886-0.726,2.06-1.088,3.519-1.088c1.553,0,2.783,0.384,3.691,1.152s1.341,1.729,1.298,2.883l-0.025,0.077h-1.413
		c0-0.755-0.32-1.413-0.961-1.973s-1.504-0.84-2.59-0.84c-1.111,0-1.945,0.239-2.501,0.715c-0.556,0.477-0.833,1.037-0.833,1.678
		c0,0.633,0.239,1.157,0.719,1.57c0.479,0.414,1.437,0.777,2.871,1.089c1.638,0.366,2.864,0.866,3.679,1.5
		c0.814,0.634,1.222,1.496,1.222,2.586c0,1.149-0.464,2.079-1.394,2.79s-2.158,1.066-3.685,1.066c-1.672,0-2.985-0.398-3.939-1.196
		c-0.955-0.797-1.407-1.748-1.355-2.851l0.025-0.077h1.4c0.06,0.989,0.465,1.707,1.216,2.154s1.635,0.671,2.654,0.671
		c1.103,0,1.973-0.241,2.609-0.724C547.248,354.931,547.566,354.347,547.566,353.661z"/>
	<path fill="#010101" d="M567.651,357.168c-0.102-0.467-0.174-0.87-0.216-1.209s-0.063-0.683-0.063-1.031
		c-0.509,0.721-1.188,1.32-2.037,1.795s-1.803,0.712-2.864,0.712c-1.341,0-2.383-0.356-3.125-1.069
		c-0.743-0.713-1.114-1.667-1.114-2.864c0-1.272,0.549-2.291,1.648-3.055c1.099-0.764,2.582-1.146,4.449-1.146h3.042v-1.706
		c0-0.984-0.316-1.757-0.948-2.317c-0.632-0.56-1.517-0.84-2.654-0.84c-1.061,0-1.941,0.267-2.641,0.802
		c-0.7,0.535-1.05,1.188-1.05,1.96l-1.4-0.013l-0.025-0.077c-0.051-1.026,0.418-1.945,1.407-2.756
		c0.988-0.81,2.247-1.215,3.774-1.215c1.519,0,2.741,0.386,3.666,1.158c0.925,0.772,1.387,1.88,1.387,3.322v6.771
		c0,0.484,0.027,0.955,0.083,1.413c0.055,0.458,0.146,0.912,0.273,1.362H567.651z M562.649,356.086c1.095,0,2.062-0.256,2.902-0.77
		c0.84-0.513,1.447-1.169,1.82-1.966v-2.877h-3.067c-1.383,0-2.489,0.295-3.316,0.885c-0.828,0.59-1.241,1.322-1.241,2.196
		c0,0.747,0.257,1.355,0.77,1.826C561.031,355.851,561.741,356.086,562.649,356.086z"/>
	<path fill="#010101" d="M574.296,343.396l0.14,2.406c0.441-0.849,1.037-1.504,1.788-1.966s1.64-0.694,2.667-0.694
		c1.493,0,2.63,0.456,3.411,1.368c0.781,0.913,1.171,2.336,1.171,4.271v8.388h-1.527v-8.392c0-1.582-0.295-2.7-0.885-3.354
		s-1.428-0.982-2.514-0.982c-1.069,0-1.941,0.283-2.616,0.848c-0.675,0.565-1.161,1.316-1.458,2.251v9.629h-1.527v-13.772H574.296z"
		/>
	<path fill="#010101" d="M586.859,350.397c0-2.198,0.464-3.957,1.394-5.276c0.929-1.319,2.225-1.979,3.889-1.979
		c0.959,0,1.791,0.204,2.495,0.611c0.705,0.407,1.29,0.984,1.757,1.731v-8.171h1.515v19.856h-1.349l-0.127-1.999
		c-0.458,0.73-1.048,1.29-1.77,1.68s-1.57,0.585-2.545,0.585c-1.646,0-2.934-0.613-3.863-1.839
		c-0.929-1.227-1.394-2.871-1.394-4.933V350.397z M588.387,350.666c0,1.671,0.333,3,0.999,3.989c0.666,0.988,1.669,1.482,3.01,1.482
		c0.984,0,1.805-0.221,2.463-0.665c0.658-0.443,1.169-1.057,1.534-1.841v-6.495c-0.348-0.801-0.84-1.451-1.477-1.949
		c-0.637-0.499-1.468-0.748-2.495-0.748c-1.341,0-2.348,0.552-3.023,1.655c-0.674,1.104-1.012,2.538-1.012,4.302V350.666z"/>
	<path fill="#010101" d="M280.698,383.982l0.521,2.457h0.077l0.649-2.457l2.928-9.305h1.311l2.928,9.305l0.662,2.521h0.077
		l0.573-2.521l2.507-9.305h1.579l-4.01,13.772h-1.298l-3.055-9.419l-0.598-2.38h-0.077l-0.611,2.38l-3.004,9.419h-1.311
		l-3.997-13.772h1.579L280.698,383.982z"/>
	<path fill="#010101" d="M306.181,388.45c-0.102-0.467-0.174-0.87-0.216-1.209s-0.063-0.683-0.063-1.031
		c-0.509,0.721-1.188,1.32-2.037,1.795s-1.803,0.712-2.864,0.712c-1.341,0-2.383-0.356-3.125-1.069
		c-0.743-0.713-1.114-1.667-1.114-2.864c0-1.272,0.549-2.291,1.648-3.055c1.099-0.764,2.582-1.146,4.449-1.146h3.042v-1.706
		c0-0.984-0.316-1.757-0.948-2.317c-0.632-0.56-1.517-0.84-2.654-0.84c-1.061,0-1.941,0.267-2.641,0.802
		c-0.7,0.535-1.05,1.188-1.05,1.96l-1.4-0.013l-0.025-0.077c-0.051-1.026,0.418-1.945,1.407-2.756
		c0.988-0.81,2.247-1.215,3.774-1.215c1.519,0,2.741,0.386,3.666,1.158c0.925,0.772,1.387,1.88,1.387,3.322v6.771
		c0,0.484,0.027,0.955,0.083,1.413c0.055,0.458,0.146,0.912,0.273,1.362H306.181z M301.179,387.368c1.095,0,2.062-0.256,2.902-0.77
		c0.84-0.513,1.447-1.169,1.82-1.966v-2.877h-3.067c-1.383,0-2.489,0.295-3.316,0.885c-0.828,0.59-1.241,1.322-1.241,2.196
		c0,0.747,0.257,1.355,0.77,1.826C299.56,387.133,300.271,387.368,301.179,387.368z"/>
	<path fill="#010101" d="M315.193,384.721l0.483,1.642h0.077l4.162-11.685h1.706l-5.982,15.975c-0.356,0.933-0.819,1.727-1.387,2.38
		c-0.569,0.653-1.4,0.98-2.495,0.98c-0.178,0-0.395-0.019-0.649-0.058c-0.255-0.038-0.441-0.078-0.56-0.121l0.178-1.273
		c0.102,0.017,0.265,0.036,0.49,0.057c0.225,0.021,0.388,0.032,0.49,0.032c0.662,0,1.192-0.236,1.591-0.707
		c0.398-0.471,0.738-1.076,1.018-1.814l0.726-1.858l-5.321-13.594h1.693L315.193,384.721z"/>
	<path fill="#010101" d="M332.287,384.943c0-0.643-0.265-1.206-0.795-1.689c-0.531-0.482-1.487-0.876-2.871-1.181
		c-1.646-0.356-2.862-0.828-3.646-1.413c-0.785-0.585-1.178-1.413-1.178-2.482c0-1.052,0.443-1.941,1.331-2.667
		c0.886-0.726,2.06-1.088,3.519-1.088c1.553,0,2.783,0.384,3.691,1.152s1.341,1.729,1.298,2.883l-0.025,0.077h-1.413
		c0-0.755-0.32-1.413-0.961-1.973s-1.504-0.84-2.59-0.84c-1.111,0-1.945,0.239-2.501,0.715c-0.556,0.477-0.833,1.037-0.833,1.678
		c0,0.633,0.239,1.157,0.719,1.57c0.479,0.414,1.437,0.777,2.871,1.089c1.638,0.366,2.864,0.866,3.679,1.5
		c0.814,0.634,1.222,1.496,1.222,2.586c0,1.149-0.464,2.079-1.394,2.79s-2.158,1.066-3.685,1.066c-1.672,0-2.985-0.398-3.939-1.196
		c-0.955-0.797-1.407-1.748-1.355-2.851l0.025-0.077h1.4c0.06,0.989,0.465,1.707,1.216,2.154s1.635,0.671,2.654,0.671
		c1.103,0,1.973-0.241,2.609-0.724C331.969,386.213,332.287,385.629,332.287,384.943z"/>
	<path fill="#010101" d="M342.801,381.36c0-2.028,0.556-3.691,1.667-4.99s2.584-1.947,4.417-1.947c1.841,0,3.318,0.649,4.43,1.947
		c1.111,1.298,1.667,2.962,1.667,4.99v0.42c0,2.037-0.554,3.702-1.661,4.996c-1.107,1.294-2.578,1.941-4.411,1.941
		c-1.85,0-3.331-0.647-4.442-1.941s-1.667-2.959-1.667-4.996V381.36z M344.328,381.774c0,1.594,0.403,2.933,1.209,4.018
		c0.806,1.085,1.93,1.627,3.373,1.627c1.417,0,2.531-0.542,3.341-1.627c0.81-1.084,1.215-2.424,1.215-4.018v-0.42
		c0-1.568-0.407-2.899-1.222-3.992c-0.815-1.093-1.935-1.64-3.36-1.64c-1.426,0-2.542,0.547-3.348,1.64s-1.209,2.424-1.209,3.992
		V381.774z"/>
	<path fill="#010101" d="M359.272,388.45v-12.525h-2.278v-1.248h2.278v-2.011c0-1.383,0.346-2.452,1.037-3.208
		c0.692-0.755,1.661-1.133,2.909-1.133c0.28,0,0.564,0.021,0.853,0.064s0.582,0.102,0.878,0.178l-0.191,1.26
		c-0.204-0.051-0.414-0.091-0.63-0.121s-0.469-0.045-0.757-0.045c-0.832,0-1.468,0.263-1.91,0.79
		c-0.441,0.526-0.662,1.264-0.662,2.214v2.011h3.284v1.248h-3.284v12.525H359.272z"/>
	<path fill="#010101" d="M378.174,387.419c1.01,0,1.901-0.287,2.673-0.862c0.772-0.575,1.159-1.374,1.159-2.396h1.349l0.025,0.076
		c0.042,1.273-0.467,2.338-1.527,3.195c-1.061,0.857-2.287,1.285-3.679,1.285c-1.875,0-3.324-0.643-4.347-1.928
		c-1.023-1.286-1.534-2.938-1.534-4.958v-0.535c0-2.003,0.513-3.649,1.54-4.939c1.026-1.29,2.469-1.935,4.328-1.935
		c1.51,0,2.769,0.445,3.774,1.336c1.006,0.891,1.491,2.062,1.458,3.513l-0.025,0.076h-1.362c0-1.103-0.372-1.983-1.114-2.641
		c-0.743-0.657-1.653-0.986-2.73-0.986c-1.477,0-2.569,0.528-3.278,1.583s-1.062,2.384-1.062,3.986v0.534
		c0,1.627,0.352,2.967,1.056,4.018C375.582,386.894,376.68,387.419,378.174,387.419z"/>
	<path fill="#010101" d="M385.722,381.36c0-2.028,0.556-3.691,1.667-4.99s2.584-1.947,4.417-1.947c1.841,0,3.318,0.649,4.43,1.947
		c1.111,1.298,1.667,2.962,1.667,4.99v0.42c0,2.037-0.554,3.702-1.661,4.996c-1.107,1.294-2.578,1.941-4.411,1.941
		c-1.85,0-3.331-0.647-4.442-1.941s-1.667-2.959-1.667-4.996V381.36z M387.249,381.774c0,1.594,0.403,2.933,1.209,4.018
		c0.806,1.085,1.93,1.627,3.373,1.627c1.417,0,2.531-0.542,3.341-1.627c0.81-1.084,1.215-2.424,1.215-4.018v-0.42
		c0-1.568-0.407-2.899-1.222-3.992c-0.815-1.093-1.935-1.64-3.36-1.64c-1.426,0-2.542,0.547-3.348,1.64s-1.209,2.424-1.209,3.992
		V381.774z"/>
	<path fill="#010101" d="M402.435,374.678l0.14,2.406c0.441-0.849,1.037-1.504,1.788-1.966s1.64-0.694,2.667-0.694
		c1.493,0,2.63,0.456,3.411,1.368c0.781,0.913,1.171,2.336,1.171,4.271v8.388h-1.527v-8.392c0-1.582-0.295-2.7-0.885-3.354
		s-1.428-0.982-2.514-0.982c-1.069,0-1.941,0.283-2.616,0.848c-0.675,0.565-1.161,1.316-1.458,2.251v9.629h-1.527v-13.772H402.435z"
		/>
	<path fill="#010101" d="M417.989,371.152v3.526h3.029v1.248h-3.029v8.974c0,0.899,0.163,1.538,0.49,1.916
		c0.327,0.378,0.762,0.566,1.305,0.566c0.246,0,0.486-0.01,0.719-0.032c0.233-0.021,0.503-0.057,0.808-0.108l0.229,1.133
		c-0.255,0.11-0.564,0.195-0.929,0.254c-0.365,0.059-0.73,0.089-1.095,0.089c-0.967,0-1.721-0.305-2.259-0.916
		c-0.539-0.611-0.809-1.579-0.809-2.902v-8.974h-2.38v-1.248h2.38v-3.526H417.989z"/>
	<path fill="#010101" d="M432.97,388.45c-0.102-0.467-0.174-0.87-0.216-1.209s-0.063-0.683-0.063-1.031
		c-0.509,0.721-1.188,1.32-2.037,1.795s-1.803,0.712-2.864,0.712c-1.341,0-2.383-0.356-3.125-1.069
		c-0.743-0.713-1.114-1.667-1.114-2.864c0-1.272,0.549-2.291,1.648-3.055c1.099-0.764,2.582-1.146,4.449-1.146h3.042v-1.706
		c0-0.984-0.316-1.757-0.948-2.317c-0.632-0.56-1.517-0.84-2.654-0.84c-1.061,0-1.941,0.267-2.641,0.802
		c-0.7,0.535-1.05,1.188-1.05,1.96l-1.4-0.013l-0.025-0.077c-0.051-1.026,0.418-1.945,1.407-2.756
		c0.988-0.81,2.247-1.215,3.774-1.215c1.519,0,2.741,0.386,3.666,1.158c0.925,0.772,1.387,1.88,1.387,3.322v6.771
		c0,0.484,0.027,0.955,0.083,1.413c0.055,0.458,0.146,0.912,0.273,1.362H432.97z M427.968,387.368c1.095,0,2.062-0.256,2.902-0.77
		c0.84-0.513,1.447-1.169,1.82-1.966v-2.877h-3.067c-1.383,0-2.489,0.295-3.316,0.885c-0.828,0.59-1.241,1.322-1.241,2.196
		c0,0.747,0.257,1.355,0.77,1.826C426.35,387.133,427.06,387.368,427.968,387.368z"/>
	<path fill="#010101" d="M443.37,387.419c1.01,0,1.901-0.287,2.673-0.862c0.772-0.575,1.159-1.374,1.159-2.396h1.349l0.025,0.076
		c0.042,1.273-0.467,2.338-1.527,3.195c-1.061,0.857-2.287,1.285-3.679,1.285c-1.875,0-3.324-0.643-4.347-1.928
		c-1.023-1.286-1.534-2.938-1.534-4.958v-0.535c0-2.003,0.513-3.649,1.54-4.939c1.026-1.29,2.469-1.935,4.328-1.935
		c1.51,0,2.769,0.445,3.774,1.336c1.006,0.891,1.491,2.062,1.458,3.513l-0.025,0.076h-1.362c0-1.103-0.372-1.983-1.114-2.641
		c-0.743-0.657-1.653-0.986-2.73-0.986c-1.477,0-2.569,0.528-3.278,1.583s-1.062,2.384-1.062,3.986v0.534
		c0,1.627,0.352,2.967,1.056,4.018C440.777,386.894,441.876,387.419,443.37,387.419z"/>
	<path fill="#010101" d="M454.164,371.152v3.526h3.029v1.248h-3.029v8.974c0,0.899,0.163,1.538,0.49,1.916
		c0.327,0.378,0.762,0.566,1.305,0.566c0.246,0,0.486-0.01,0.719-0.032c0.233-0.021,0.503-0.057,0.808-0.108l0.229,1.133
		c-0.255,0.11-0.564,0.195-0.929,0.254c-0.365,0.059-0.73,0.089-1.095,0.089c-0.967,0-1.721-0.305-2.259-0.916
		c-0.539-0.611-0.809-1.579-0.809-2.902v-8.974h-2.38v-1.248h2.38v-3.526H454.164z"/>
	<path fill="#010101" d="M462.132,370.732h-1.515v-2.138h1.515V370.732z M462.132,388.45h-1.515v-13.772h1.515V388.45z"/>
	<path fill="#010101" d="M467.694,374.678l0.14,2.406c0.441-0.849,1.037-1.504,1.788-1.966s1.64-0.694,2.667-0.694
		c1.493,0,2.63,0.456,3.411,1.368c0.781,0.913,1.171,2.336,1.171,4.271v8.388h-1.527v-8.392c0-1.582-0.295-2.7-0.885-3.354
		s-1.428-0.982-2.514-0.982c-1.069,0-1.941,0.283-2.616,0.848c-0.675,0.565-1.161,1.316-1.458,2.251v9.629h-1.527v-13.772H467.694z"
		/>
	<path fill="#010101" d="M480.257,381.679c0-2.198,0.469-3.957,1.406-5.276c0.938-1.319,2.242-1.979,3.914-1.979
		c0.976,0,1.82,0.214,2.533,0.643c0.712,0.429,1.302,1.033,1.769,1.814l0.178-2.202h1.286v13.594c0,1.773-0.49,3.174-1.47,4.201
		c-0.98,1.026-2.344,1.54-4.092,1.54c-0.662,0-1.366-0.081-2.113-0.242c-0.747-0.162-1.4-0.382-1.96-0.662l0.395-1.286
		c0.543,0.271,1.116,0.478,1.719,0.617c0.602,0.14,1.247,0.21,1.935,0.21c1.341,0,2.353-0.387,3.036-1.159s1.025-1.846,1.025-3.22
		v-1.731c-0.467,0.696-1.057,1.232-1.77,1.61s-1.544,0.566-2.495,0.566c-1.655,0-2.951-0.615-3.889-1.845s-1.406-2.873-1.406-4.926
		V381.679z M481.785,381.947c0,1.662,0.339,2.99,1.018,3.982c0.679,0.993,1.688,1.489,3.029,1.489c0.984,0,1.806-0.227,2.463-0.681
		c0.657-0.454,1.165-1.08,1.521-1.877v-6.39c-0.331-0.805-0.817-1.465-1.458-1.979c-0.641-0.514-1.475-0.771-2.501-0.771
		c-1.341,0-2.355,0.554-3.042,1.662c-0.687,1.108-1.031,2.54-1.031,4.295V381.947z"/>
	<path fill="#010101" d="M503.003,374.678l0.14,2.278c0.441-0.806,1.029-1.43,1.763-1.871c0.734-0.441,1.61-0.662,2.628-0.662
		c1.052,0,1.933,0.254,2.641,0.764s1.216,1.286,1.521,2.329c0.416-0.967,1.008-1.725,1.776-2.272
		c0.768-0.547,1.703-0.821,2.807-0.821c1.468,0,2.601,0.488,3.398,1.464c0.797,0.976,1.196,2.486,1.196,4.531v8.032h-1.527v-8.073
		c0-1.701-0.299-2.901-0.897-3.603c-0.598-0.702-1.432-1.052-2.501-1.052c-1.18,0-2.092,0.37-2.737,1.109s-1.043,1.688-1.196,2.844
		c0,0.06,0.002,0.145,0.006,0.255c0.004,0.11,0.006,0.191,0.006,0.242v8.277h-1.54v-8.073c0-1.667-0.304-2.859-0.91-3.578
		c-0.607-0.718-1.44-1.078-2.501-1.078c-1.078,0-1.933,0.274-2.564,0.823c-0.632,0.548-1.076,1.286-1.33,2.213v9.693h-1.541v-13.772
		H503.003z"/>
	<path fill="#010101" d="M529.987,388.717c-1.723,0-3.154-0.636-4.296-1.909c-1.141-1.273-1.712-2.885-1.712-4.837v-0.7
		c0-1.969,0.566-3.603,1.699-4.901s2.505-1.947,4.118-1.947c1.689,0,3.017,0.535,3.984,1.604c0.967,1.069,1.451,2.495,1.451,4.277
		v1.298h-9.725v0.369c0,1.549,0.412,2.845,1.235,3.886s1.905,1.562,3.246,1.562c0.951,0,1.761-0.131,2.431-0.395
		c0.67-0.263,1.243-0.641,1.719-1.133l0.649,1.044c-0.518,0.545-1.173,0.979-1.966,1.3
		C532.026,388.557,531.082,388.717,529.987,388.717z M529.796,375.722c-1.128,0-2.075,0.43-2.838,1.288
		c-0.764,0.859-1.209,1.936-1.336,3.23l0.025,0.063h8.07v-0.381c0-1.193-0.352-2.191-1.056-2.996
		C531.956,376.124,531.001,375.722,529.796,375.722z"/>
	<path fill="#010101" d="M540.107,388.45h-1.744v-2.087h1.744V388.45z"/>
</g>
<g>
	<path fill-rule="evenodd" clip-rule="evenodd" d="M84.247,0c7.321,11.871,14.642,23.741,22.421,36.354c-5.307,0-10.165,0-15.508,0
		c0,47.3,0,93.883,0,141.362c9.226-7.692,18.093-15.075,26.949-22.471c4.651-3.885,9.672-7.43,13.788-11.819
		c2.8-2.988,5.812-7.049,6.126-10.846c0.844-10.178,0.288-20.472,0.288-31.242c-4.474,0-8.343,0-12.651,0
		c0-12.249,0-23.979,0-36.198c13.378,0,26.859,0,41.281,0c0,10.886,0.115,21.971-0.187,33.044c-0.028,1.039-2.582,2.634-4.133,2.873
		c-2.979,0.462-6.08,0.135-10.08,0.135c0,8.6-0.12,16.849,0.028,25.094c0.225,12.508-5.547,22.018-14.768,29.717
		c-14.108,11.775-28.579,23.129-42.36,35.27c-2.805,2.471-4.491,7.607-4.563,11.555c-0.42,23.022,0.122,46.064-0.386,69.083
		c-0.175,7.951,1.892,14.285,7.04,20.091c3.399,3.834,6.306,8.102,9.276,11.972c12.648-13.273,24.512-26.706,37.6-38.817
		c3.649-3.377,10.919-2.843,16.528-4.102c0.258,0.687,0.516,1.373,0.774,2.06c-4.139,4.845-8.157,9.8-12.441,14.513
		c-10.252,11.282-20.551,22.524-31.01,33.613c-2.522,2.675-3.09,4.321-0.545,7.637c17.72,23.102,35.154,46.424,52.635,69.709
		c0.598,0.797,0.723,1.945,1.279,3.532c-4.857,0-9.209,0.324-13.474-0.146c-1.951-0.214-4.279-1.561-5.505-3.122
		c-15.452-19.699-30.73-39.532-46.078-59.312c-0.502-0.647-1.259-1.097-2.35-2.021c-4.098,4.703-8.465,9.018-11.896,13.978
		c-1.521,2.199-2.002,5.865-1.493,8.591c2.596,13.915-1.822,25.338-12.585,33.804c-5.071,3.989-11.472,7.53-17.716,8.548
		c-18.297,2.983-36.438,1.944-49.826-13.137C5.833,373.813,3.495,366.077,0,359.365c0-3.07,0-6.143,0-9.214
		c2.409,0.051,4.869,0.441,7.217,0.09c6.279-0.94,8.1,2.258,10.07,7.772c1.921,5.372,5.642,11.023,10.187,14.349
		c10.71,7.84,23.375,7.529,35.373,3.646c11.483-3.718,16.377-16.16,11.935-26.84c-2.706-6.504-8.708-8.912-14.595-10.886
		c-11.578-3.885-23.442-6.917-35.009-10.829c-7.628-2.582-14.058-7.763-16.957-15.168c-7.371-18.823-1.855-34.637,14.33-44.827
		c17.29-10.883,34.904-9.316,52.168,0.625c4.67-10.472,2.51-25.316-5.667-32.559c-11.81-10.46-24.14-20.335-36.321-30.373
		c-10.918-8.995-19.624-18.948-18.198-34.574c0.615-6.738,0.19-13.584,0.036-20.375c-0.037-1.604-0.53-4.323-1.421-4.605
		C6.056,143.356,3.294,137.29,0,131.636c0-1.755,0-3.511,0-5.266c4.184-11.501,12.193-16.912,24.566-15.665
		c8.215,0.828,13.376,5.365,16.467,12.744c2.806,6.699,1.157,14.201-4.019,16.93c-10.122,5.336-8.125,13.498-8.201,21.644
		c-0.045,4.82-0.723,9.785,0.198,14.425c0.877,4.418,2.438,9.544,5.488,12.531c8.493,8.309,17.85,15.75,27.001,23.37
		c4.473,3.725,9.244,7.088,14.441,11.042c0-63.112,0-124.775,0-186.895c-5.485,0-10.414,0-16.062,0
		C67.843,23.888,75.387,11.944,82.93,0C83.369,0,83.808,0,84.247,0z M75.168,324.382c0-10.475,0.092-21.36-0.109-32.24
		c-0.027-1.468-1.211-3.259-2.388-4.31c-12.542-11.185-29.979-14.596-45.182-4.087c-8.882,6.139-10.573,23.192,2.514,27.049
		c4.098,1.208,8.069,2.844,12.166,4.056C52.804,317.997,63.476,321.015,75.168,324.382z"/>
</g>
<g>
	<path fill="#010101" d="M201.368,24.631c0,0-6.238-3.937-11.387-3.937c-2.059,0-3.452,0.605-3.452,2.119
		c0,2.241,3.028,2.726,7.995,4.3c7.935,2.484,12.961,5.27,12.961,13.325c0,10.357-8.358,13.688-16.354,13.688
		c-6.238,0-13.567-1.999-18.715-5.027l5.087-10.357c0,0,7.208,4.725,13.81,4.725c2.543,0,3.453-0.728,3.453-1.878
		c0-2.483-4.421-3.028-9.57-4.784c-7.571-2.544-10.902-5.754-10.902-12.053c0-9.509,7.57-14.536,16.05-14.536
		c6.238,0,12.234,2.726,16.11,4.663L201.368,24.631z"/>
	<path fill="#010101" d="M207.663,53.582l16.05-43.003h9.569l15.99,43.003h-12.476l-2.605-8.418h-11.448l-2.543,8.418H207.663z
		 M228.499,22.875l-3.997,14.415h7.813L228.499,22.875z"/>
	<path fill="#010101" d="M252.478,53.582V10.579h19.744c8.42,0,14.475,7.571,14.475,14.899c0,4.967-2.301,9.571-6.178,12.295
		l9.691,15.809h-13.325l-8.177-13.204h-4.421v13.204H252.478z M264.288,30.082h7.449c1.454,0,2.969-1.697,2.969-4.604
		c0-2.967-1.817-4.603-3.271-4.603h-7.147V30.082z"/>
	<path fill="#010101" d="M289.842,53.582l16.05-43.003h9.569l15.99,43.003h-12.477l-2.604-8.418h-11.448l-2.543,8.418H289.842z
		 M310.677,22.875L306.68,37.29h7.813L310.677,22.875z"/>
	<path fill="#010101" d="M346.404,53.582V10.579h11.811v17.564l14.294-17.564h12.113l-15.627,19.26l16.717,23.743h-12.356
		l-11.325-17.141l-3.816,4.361v12.78H346.404z"/>
	<path fill="#010101" d="M383.951,53.582l16.05-43.003h9.569l15.99,43.003h-12.476l-2.605-8.418h-11.447l-2.543,8.418H383.951z
		 M404.787,22.875L400.79,37.29h7.813L404.787,22.875z"/>
	<path fill="#010101" d="M428.766,53.582V10.579h11.81v32.706h19.502v10.297H428.766z"/>
	<path fill="#010101" d="M460.195,53.582l16.05-43.003h9.569l15.99,43.003h-12.477l-2.604-8.418h-11.448l-2.543,8.418H460.195z
		 M481.031,22.875l-3.997,14.415h7.813L481.031,22.875z"/>
	<path fill="#010101" d="M501.074,32.02c0-11.387,8.721-21.683,20.774-21.683c12.355,0,20.472,10.963,20.472,21.926
		c0,11.265-8.601,21.683-20.713,21.683C509.31,53.945,501.074,43.104,501.074,32.02z M521.727,43.467c5.997,0,8.6-5.815,8.6-11.448
		c0-5.814-2.847-11.205-8.66-11.205c-5.936,0-8.602,5.693-8.602,11.326C513.065,37.895,515.852,43.467,521.727,43.467z"/>
	<path fill="#010101" d="M547.402,53.582V10.579h19.744c8.42,0,14.475,7.571,14.475,14.899c0,4.967-2.301,9.571-6.177,12.295
		l9.691,15.809h-13.325l-8.177-13.204h-4.422v13.204H547.402z M559.212,30.082h7.449c1.454,0,2.969-1.697,2.969-4.604
		c0-2.967-1.816-4.603-3.271-4.603h-7.147V30.082z"/>
	<path fill="#010101" d="M584.766,53.582l16.05-43.003h9.569l15.99,43.003h-12.476l-2.605-8.418h-11.448l-2.543,8.418H584.766z
		 M605.602,22.875l-3.997,14.415h7.813L605.602,22.875z"/>
	<path fill="#010101" d="M662.104,53.582V30.929l-7.208,15.93h-6.298l-7.208-15.93v22.652h-11.81V10.579h12.9l9.267,20.23
		l9.328-20.23h12.84v43.003H662.104z"/>
</g>
<line fill="none" stroke="#000000" stroke-width="3" x1="239.441" y1="85.178" x2="239.441" y2="393.778"/>
</svg>
